<svg width="107" height="107" viewBox="0 0 107 107" fill="none" xmlns="http://www.w3.org/2000/svg">
<path d="M105.892 100.544L91.7488 86.4009C94.0996 77.3971 101.44 43.7576 84.9581 27.2749C66.9338 9.25138 6.87009 0.406764 4.32191 0.0389284C3.13986 -0.129678 1.95025 0.264817 1.10722 1.10785C0.264192 1.95088 -0.131744 3.14193 0.0383031 4.32217C0.406138 6.87036 9.25039 66.9341 27.274 84.9584C34.2102 91.8947 44.8936 95.4113 59.027 95.4113C70.8651 95.4113 81.8378 92.9304 86.3978 91.7473L100.543 105.893C101.282 106.631 102.25 107 103.218 107C104.186 107 105.153 106.631 105.892 105.893C107.369 104.415 107.369 102.021 105.892 100.544ZM59.0274 87.8474C46.9731 87.8474 38.0889 85.0758 32.6229 79.6095C26.0231 73.0097 19.5995 57.8168 14.0463 35.6735C11.2589 24.5592 9.34694 14.2393 8.3454 8.34566C14.239 9.34721 24.5586 11.2592 35.6733 14.0469C57.8169 19.6001 73.0098 26.0237 79.6099 32.6235C91.2772 44.2905 87.8983 68.5752 85.4463 80.098L62.5151 57.1672V43.0338C62.5151 40.9454 60.8219 39.2521 58.7334 39.2521C56.6449 39.2521 54.9516 40.9454 54.9516 43.0338V49.6034L37.8569 32.5089C36.3794 31.0326 33.9854 31.0326 32.5083 32.5089C31.0312 33.986 31.0312 36.3804 32.5083 37.8575L36.5188 41.868H29.9486C27.8601 41.868 26.1668 43.5613 26.1668 45.6498C26.1668 47.7382 27.8601 49.4315 29.9486 49.4315H44.0827L62.6866 68.0355H56.116C54.0276 68.0355 52.3343 69.7287 52.3343 71.8172C52.3343 73.9057 54.0272 75.599 56.116 75.599L70.2505 75.5993L80.1035 85.452C74.9149 86.558 67.1291 87.8474 59.0274 87.8474Z" fill="#49863F"/>
</svg>
