<svg width="764" height="530" viewBox="0 0 764 530" fill="none" xmlns="http://www.w3.org/2000/svg">
<path d="M697.233 295.662L697.17 295.762L697.359 295.809L697.233 295.662Z" fill="white"/>
<path d="M696.664 295.021L697.233 295.673C697.483 295.245 697.353 295.021 696.664 295.021Z" fill="white"/>
<path d="M92.4202 119.606C94.6054 120.916 96.7437 122.216 98.4283 122.79L92.4202 119.606Z" fill="white"/>
<path d="M92.4202 119.606C90.4911 118.37 88.4623 117.296 86.3549 116.397L92.4202 119.606Z" fill="white"/>
<path d="M110.502 102.181C110.835 102.907 114.152 109.675 114.408 110.009L110.502 102.181Z" fill="white"/>
<path d="M131.097 108.934C131.738 107.51 134.466 102.458 134.648 101.106L131.097 108.934Z" fill="white"/>
<path d="M145.168 122.367L143.885 123.15L145.168 122.367Z" fill="white"/>
<path d="M145.168 122.367L152.052 118.192C151.087 118.63 147.348 121.01 145.168 122.367Z" fill="white"/>
<path d="M718.078 257.138C729.786 256.846 741.735 256.617 750.757 255.051L718.078 257.138Z" fill="white"/>
<path d="M82.4486 450.473C92.5454 459.345 107.106 474.166 119.947 482.036C126.799 486.211 126.841 489.342 130.622 484.984C134.127 480.945 137.924 479.212 135.144 477.923C137.918 478.169 157.21 450.995 157.236 450.86C158.169 445.824 154.133 444.722 149.752 444.597C153.382 442.199 156.865 439.585 160.183 436.769C166.076 441.043 171.422 443.694 174.311 442.51C185.294 437.99 249.202 388.92 289.141 361.099C290.528 371.494 291.963 378.811 293.178 378.811C313.486 378.811 329.038 377.96 345.56 377.209C366.5 404.977 390.245 421.729 481.961 452.117C481.961 452.117 482.827 450.4 484.569 447.081C488.449 448.95 493.633 450.985 497.508 450.833C494.17 451.627 491.051 449.398 489.873 451.105C489.231 452.028 489.221 457.56 489.221 461.631C489.221 463.718 487.082 477.396 486.091 478.529C484.908 479.849 483.082 480.481 478.79 483.591C476.751 485.062 472.897 485.934 472.13 489.608C471.838 491.007 470.566 494.305 470.884 495.917C469.403 498.307 467.535 507.299 475.885 506.939C487.442 506.417 505.779 511.698 514.327 502.681C526.656 489.681 528.195 483.032 536.555 468.326C539.095 463.859 548.028 447.368 539.746 445.594C537.055 445.02 536.909 443.251 534.156 444.221C533.483 442.416 531.026 440.96 526.26 438.022C518.724 433.361 502.269 421.468 503.219 432.803C500.454 431.133 497.597 429.622 494.66 428.278C495.536 426.671 496.458 424.991 497.424 423.237C494.452 419.396 459.353 401.089 433.907 375.706L532.831 374.881C529.472 364.115 488.861 289.865 446.221 223.405H447.264H446.184C438.481 211.402 430.705 199.634 423.075 188.555C460.703 203.428 500.825 215.984 522.051 226.291C523.094 226.813 524.048 223.765 524.826 219.209C541.415 219.997 539.288 240.136 556.503 232.256C557.223 232.588 557.962 232.879 558.714 233.127L559.58 233.404L560.102 233.769C564.039 236.41 580.963 243.575 588.786 245.48C585.558 254.727 581.338 263.62 578.22 276.207L589.406 267.737C589.406 266.355 595.477 248.376 597.636 241.279L598.158 241.472C595.081 249.968 592.004 258.213 589.745 267.737C585.052 273.713 572.608 278.43 580.483 279.787C604.661 283.962 669.941 303.271 684.56 303.271C686.208 303.271 695.684 297.776 697.113 295.735L695.934 295.428C699.209 292.917 704.445 270.378 707.408 257.786L718.026 257.112C714.464 257.201 710.923 257.295 707.491 257.431C708.409 253.543 709.092 250.646 709.421 249.707C710.355 246.8 711.104 243.837 711.663 240.835C716.853 240.637 721.891 240.225 724.071 239.525L711.888 240.162C715.836 220.086 718.563 185.481 721.338 179.626C722.527 177.111 704.915 176.578 701.212 175.394C695.475 173.567 623.942 161.893 616.818 161.893C612.067 162.446 609.079 165.457 605.897 167.696C602.064 170.405 601.318 179.777 601.548 184.631C601.59 185.704 601.577 186.779 601.511 187.851C586.22 184.98 555.262 182.408 548.706 193.722C547.966 194.242 547.305 194.868 546.745 195.579C546.448 195.955 546.172 196.336 545.911 196.717C539.992 196.341 533.827 196.388 530.317 195.527C530.317 195.527 527.584 195.527 527.287 195.501C527.564 191.436 527.704 188.644 527.704 188.644C511.819 183.425 446.904 155.892 399.283 133.801C399.516 133.787 399.743 133.725 399.95 133.618H398.86C379.246 124.512 362.614 116.35 353.628 111.09C346.28 106.789 339.464 104.791 333.549 104.634C333.581 104.394 333.612 104.159 333.648 103.919C333.648 103.841 333.648 103.763 333.685 103.679C333.716 103.465 333.748 103.251 333.784 103.037C333.784 102.943 333.815 102.849 333.831 102.75C333.862 102.552 333.899 102.354 333.935 102.155C333.935 102.051 333.977 101.947 333.993 101.842C334.029 101.654 334.071 101.466 334.107 101.284C334.144 101.101 334.154 101.059 334.18 100.95C334.206 100.84 334.259 100.595 334.3 100.428C334.342 100.261 334.358 100.198 334.389 100.089C334.42 99.9791 334.478 99.7495 334.519 99.5668C334.561 99.3842 334.587 99.3372 334.618 99.2224C334.65 99.1076 334.712 98.8988 334.765 98.7371L334.874 98.3926C334.926 98.2361 334.978 98.0795 335.036 97.923C335.093 97.7664 335.114 97.7038 335.156 97.589C335.197 97.4741 335.276 97.2863 335.338 97.1402C335.401 96.994 335.422 96.921 335.469 96.8166C335.516 96.7122 335.599 96.5243 335.667 96.3782L335.808 96.0755C335.881 95.9294 335.959 95.7885 336.037 95.6424C336.115 95.4963 336.131 95.4597 336.183 95.371L336.454 94.9222L336.59 94.703C336.731 94.4891 336.877 94.2856 337.033 94.082C338.94 91.4248 340.371 88.4566 341.263 85.3095C341.383 84.7876 341.508 84.2919 341.628 83.7439C347.636 87.5378 354.353 91.5719 362.604 98.5387C379.001 112.41 403.283 113.913 417.677 95.0475C425.38 84.939 425.714 68.3646 420.222 57.5046C407.064 31.4844 388.482 32.3821 361.289 33.2484C352.564 33.5302 339.969 21.8769 322.133 21.8769C307.895 21.8769 289.459 37.5329 302.059 58.4544C302.487 54.7648 304.391 51.858 305.919 49.2696C308.584 44.7711 309.997 43.837 311.019 44.8963C308.15 47.4698 306.202 50.9117 305.47 54.697C303.561 64.2053 298.956 75.415 298.169 83.2638C297.293 91.9111 300.364 96.7279 305.47 101.346C307.708 103.356 307.603 105.892 307.525 108.052C307.398 109.634 307.153 111.204 306.79 112.749C301.465 113.793 295.838 117.524 291.326 124.199C281.037 139.406 260.155 165.525 245.494 175.795C238.224 180.894 232.274 183.159 223.642 180.664C217.311 178.838 171.328 163.923 170.723 165.097C170.53 165.468 170.269 166.011 169.956 166.689C169.116 166.167 167.035 165.645 166.05 164.998C158.639 160.197 157.94 159.847 152.714 151.884C149.554 147.062 145.225 145.59 141.314 145.663C138.45 139.312 135.462 132.872 133.146 128.525C130.763 124.053 127.582 121.496 124.677 124.152C122.94 125.717 115.368 131.338 111.67 136.457C107.873 141.718 109.636 146.331 111.925 151.534C107.691 153.251 109.094 158.444 110.835 161.653C112.807 165.306 112.64 161.209 112.802 166.538C112.864 168.656 117.495 170.191 118.205 173.379C118.512 174.767 124.463 180.388 125.751 180.738C126.273 181.698 126.794 182.674 127.316 183.686C132.755 193.737 136.375 190.616 141.919 182.945C142.273 182.46 142.649 181.901 143.035 181.322C143.035 181.588 143.217 181.729 143.556 181.693C149.919 180.998 159.552 184.886 162.008 184.385C162.655 184.255 166.587 173.593 168.751 169.361C164.902 178.165 157.799 196.023 159.786 196.686C179.244 203.141 183.161 204.101 221.848 213.829C242.391 218.995 253.954 219.569 266.246 208.49C272.384 202.958 278.445 197.307 284.432 191.712C283.775 217.539 283.696 247.353 283.602 268.849C242.647 303.094 133.308 410.018 135.905 413.484C136.985 414.914 138.377 416.578 139.994 418.379C136.104 421.687 132.213 425.502 130.085 428.524C130.664 426.306 131.389 424.234 131.54 422.533C131.598 421.933 109.339 423.253 105.85 423.436L105.026 423.112C99.7425 422.141 76.9569 409.502 76.3675 409.476C71.34 409.241 68.216 409.444 66.5732 410.373C61.1441 412.409 57.1179 419.245 58.4634 421.619C61.6239 427.089 70.4065 439.848 82.4486 450.473ZM669.034 288.424C680.257 290.96 690.641 293.424 693.989 294.932L669.034 288.424ZM607.295 210.322C605.141 221.683 602.017 230.93 598.831 239.797L600.666 230.179C603.795 218.14 608.953 198.157 612.583 182.815C610.189 195.078 607.634 208.511 607.295 210.322ZM146.028 156.267C148.339 160.004 149.157 160.881 149.679 164.393C148.782 161.303 147.071 158.532 146.753 157.88C146.503 157.358 146.263 156.821 146.028 156.267ZM149.236 171.266C149.641 170.656 149.921 169.971 150.06 169.251C150.023 170.869 149.486 171.339 147.786 173.604C148.302 172.748 148.792 171.955 149.23 171.266H149.236ZM141.637 444.795C141.327 444.781 141.019 444.734 140.719 444.655C132.067 442.045 129.584 438.131 129.36 434.082C131.66 437.578 136.933 442.494 141.637 444.795Z" fill="white"/>
<path d="M339.667 378.587L345.039 378.341L344.256 377.298L343.49 376.254L339.568 376.431C324.965 377.115 311.176 377.752 293.491 377.762C292.787 376.656 291.665 371.761 290.288 361.621L289.298 362.31L288.301 363.004C289.543 371.776 290.852 378.138 292.072 379.406C292.209 379.565 292.378 379.693 292.567 379.783C292.757 379.873 292.963 379.922 293.172 379.928C311.061 379.917 324.955 379.27 339.667 378.587Z" fill="black"/>
<path d="M304.573 49.3792L304.97 48.7164C307.197 44.9485 308.683 43.4195 310.148 43.4195C310.239 43.4143 310.329 43.4143 310.42 43.4195C310.475 43.4261 310.529 43.4383 310.581 43.456C309.971 37.6164 311.134 33.3005 313.825 32.309L314.566 34.3234C313.356 34.767 312.276 37.4963 312.62 42.2609C312.646 42.6576 312.683 43.0594 312.735 43.4821C312.787 43.9048 312.834 44.2753 312.897 44.6928C313.074 45.8253 313.309 47.036 313.643 48.3459C313.757 48.7268 313.872 49.1182 313.992 49.5357C314.821 52.3694 315.854 55.9025 317.711 58.8614C325.69 71.5584 332.626 76.7301 340.893 82.0061L341.857 82.6167L342.817 83.222L343.933 83.9266C349.477 87.4022 355.761 91.3422 363.277 97.7038C372.195 105.25 383.293 108.924 393.718 107.786C402.902 106.784 410.882 102.145 416.806 94.3795C423.837 85.1529 424.911 69.1578 419.247 57.9638C406.548 32.8465 388.905 33.4362 362.202 34.2712L361.29 34.2973C357.394 34.4278 352.882 32.3716 347.683 29.9919C340.793 26.8607 332.219 22.9311 322.128 22.9311C314.148 22.9311 305.439 28.0506 301.475 35.1062C298.998 39.4898 297.173 46.4411 301.621 55.4224C302.367 53.3 303.358 51.2719 304.573 49.3792Z" fill="black"/>
<path d="M108.405 153.663C107.273 156.794 109.052 160.661 109.865 162.164C110.554 163.427 111.091 163.996 111.623 164.278C111.649 164.675 111.67 165.358 111.696 166.209V166.569C111.743 168.051 113 169.1 114.335 170.222C115.561 171.266 116.828 172.309 117.125 173.625C117.49 175.279 122.794 180.409 124.948 181.562C125.402 182.418 125.871 183.289 126.356 184.171C128.854 188.785 131.076 190.914 133.553 191.076H133.83C137.048 191.076 139.89 187.511 142.758 183.535C142.946 183.284 143.134 183.013 143.327 182.726C143.441 182.739 143.557 182.739 143.671 182.726C147.223 182.34 151.974 183.488 155.791 184.411C157.546 184.901 159.337 185.25 161.147 185.455C157.768 194.885 158.3 196.19 158.54 196.79C158.618 196.994 158.74 197.178 158.896 197.329C159.053 197.481 159.241 197.596 159.447 197.667C178.676 204.049 182.587 205.036 220.012 214.445L221.577 214.836C230.302 217.028 237.499 218.39 243.836 218.39C252.577 218.39 259.69 215.807 266.95 209.257C272.457 204.294 277.939 199.196 283.29 194.202C282.737 217.435 282.627 243.58 282.544 263.578C282.544 265.196 282.544 266.777 282.544 268.312L283.618 267.414C283.983 267.111 284.338 266.814 284.693 266.527C284.693 265.561 284.693 264.585 284.693 263.583C284.734 253.783 284.781 242.495 284.885 230.8C289.058 230.836 293.173 230.956 297.345 231.155C295.916 243.314 294.92 254.143 295.259 258.537L295.869 258.177C295.999 258.104 296.14 258.031 296.291 257.963C296.631 257.798 296.979 257.651 297.334 257.525C296.813 243.993 305.997 183.524 306.096 182.898L306.185 182.293L305.71 181.907C304.089 180.604 302.543 179.21 301.079 177.732C300.557 177.21 300.078 176.688 299.619 176.166C290.346 165.64 293.36 157.233 296.338 149.06C296.943 147.396 297.564 145.668 298.07 143.967C301.199 133.378 302.696 129.162 307.249 119.899C308.479 118.333 310.128 117.754 312.057 117.665C310.633 122.07 310.493 127.205 311.723 132.643C313.038 138.383 315.447 147.526 318.634 159.023C318.853 159.811 319.072 160.588 319.301 161.423C326.029 185.575 335.912 219.183 346.196 252.75L346.52 253.793C346.608 254.086 346.697 254.378 346.791 254.67C346.791 254.733 346.828 254.79 346.843 254.853C344.204 254.962 340.856 255.098 337.143 255.275C330.326 255.604 322.274 256.069 315.098 256.737C309.241 257.285 303.973 257.963 300.443 258.824C299.218 259.076 298.032 259.484 296.912 260.04L296.709 260.155C294.195 261.616 290.017 264.82 284.661 269.293L283.587 270.19L282.513 271.098C264.311 286.519 234.688 314.283 210.114 337.975C170.029 376.635 138.998 408.552 137.006 413.124C137.898 414.282 138.935 415.54 140.088 416.855L140.813 417.659L141.538 418.457C147.207 424.655 153.421 430.332 160.104 435.418L160.996 436.075C161.304 436.294 161.601 436.508 161.904 436.717C167.082 440.37 171.588 442.458 173.899 441.518C180.47 438.815 207.089 419.318 235.267 398.678C256.128 383.383 273.991 370.383 287.973 360.629L288.979 359.925L289.97 359.236C303.854 349.602 313.669 343.397 318.529 341.639C317.309 339.228 315.922 336.493 314.55 333.691C311.092 326.76 306.785 318.134 306.049 317.288C306.138 317.38 306.247 317.45 306.367 317.492L307.129 315.493C307.859 315.77 308.339 316.453 316.464 332.715C317.909 335.611 319.369 338.544 320.668 341.101H320.793C320.909 341.093 321.026 341.093 321.142 341.101C321.38 341.132 321.608 341.212 321.813 341.335C322.019 341.458 322.197 341.622 322.337 341.816C326.217 347.348 329.638 352.389 332.918 357.263C337.581 364.157 341.784 370.362 346.077 376.092L346.859 377.136L347.652 378.18C368.132 404.722 392.571 421.317 481.419 450.807C481.763 450.134 482.326 449.044 483.098 447.556C483.249 447.259 483.416 446.935 483.619 446.606C483.823 446.278 483.938 445.991 484.11 445.667C486.133 441.8 489.148 436.112 493.137 428.785C493.31 428.477 493.482 428.158 493.659 427.84L494.18 426.896L496.084 423.42C494.613 422.11 490.613 419.548 485.711 416.406C472.521 407.957 450.805 394.034 433.422 376.786H434.987H436.473L534.286 375.972L533.858 374.594C530.312 363.233 489.174 288.523 447.285 223.144V222.346H446.763C439.78 211.46 432.781 200.845 425.938 190.83C440.369 196.451 454.873 201.669 468.933 206.721C490.53 214.486 509.18 221.192 521.608 227.241C521.842 227.352 522.1 227.404 522.359 227.393C522.617 227.382 522.87 227.308 523.094 227.178C523.642 226.849 524.586 226.286 525.702 220.352C532.059 220.973 535.324 224.731 538.474 228.378C541.473 231.844 544.357 235.163 549.426 235.163C551.413 235.163 553.729 234.641 556.519 233.425L557.306 233.065C557.859 232.804 558.428 232.517 559.017 232.204C559.45 232.339 559.883 232.475 560.326 232.6C564.009 233.629 567.745 234.458 571.518 235.084C574.006 235.518 576.493 235.904 578.955 236.285C581.672 236.697 584.327 237.109 586.872 237.569C587.915 237.762 588.958 237.96 590.001 238.174L591.044 238.404L592.087 238.644C593.793 239.051 595.42 239.505 596.948 240.032L597.532 240.24L597.787 240.329L597.834 240.204L597.996 240.261C598.288 240.361 598.585 240.454 598.872 240.559L598.126 242.563L597.381 242.297L596.859 242.119L596.369 241.957C594.836 241.472 593.24 241.044 591.524 240.663L590.481 240.434L589.438 240.22C589.041 241.563 588.619 242.886 588.171 244.191C582.955 242.782 574.465 239.458 568.149 236.619C565.103 236.028 562.091 235.274 559.126 234.359L559.559 234.651C563.434 237.261 579.101 243.914 587.466 246.216C586.58 248.705 585.625 251.163 584.655 253.668C582.089 260.311 579.44 267.174 577.26 275.946L576.53 278.885L576.973 278.545C576.973 278.618 576.973 278.686 577.005 278.754C577.323 280.137 578.986 280.596 580.395 280.841C590.543 282.59 607.723 286.958 625.908 291.587C650.566 297.849 676.064 304.336 684.653 304.336C686.651 304.336 696.925 298.413 698.213 296.132C698.36 295.91 698.443 295.652 698.453 295.386C698.463 295.12 698.4 294.856 698.271 294.624C698.213 294.537 698.146 294.457 698.072 294.384C700.769 289.609 703.95 277.533 708.346 258.814L708.425 258.464C712.018 258.328 715.695 258.24 719.335 258.146C730.564 257.864 742.173 257.577 750.961 256.084L750.606 253.997C741.97 255.458 730.433 255.75 719.283 256.027C715.836 256.116 712.352 256.199 708.936 256.324C709.671 253.193 710.24 250.866 710.5 250.062C711.359 247.384 712.055 244.657 712.587 241.895C717.562 241.681 722.292 241.263 724.441 240.58L723.789 238.539C721.938 239.129 717.661 239.52 713.019 239.739C714.767 230.675 716.269 218.865 717.645 208.078C719.278 195.235 720.822 183.107 722.271 180.049C722.385 179.818 722.44 179.564 722.432 179.307C722.423 179.05 722.352 178.8 722.224 178.577C721.327 176.964 717.286 176.349 708.91 175.415C705.718 175.06 702.698 174.72 701.499 174.339C696.127 172.617 629.481 161.596 617.83 160.828V160.656L616.698 160.787H616.662C616.552 160.787 616.448 160.818 616.344 160.834C612.396 161.387 609.564 163.532 607.06 165.436C606.44 165.911 605.85 166.36 605.251 166.783C600.932 169.825 600.218 179.798 600.447 184.641C600.473 185.246 600.473 185.899 600.447 186.562C584.973 183.863 554.881 181.437 547.846 192.96C547.103 193.508 546.437 194.152 545.864 194.875C545.682 195.104 545.509 195.339 545.343 195.574C543.778 195.48 542.182 195.412 540.649 195.35C536.669 195.183 532.909 195.026 530.552 194.447C530.278 194.399 530 194.387 529.723 194.41H528.403C528.627 190.992 528.742 188.706 528.747 188.67L528.789 187.851L528.012 187.595C512.413 182.491 447.175 154.837 399.392 132.669H399.445H399.377C379.83 123.593 363.219 115.447 354.145 110.124C347.427 106.189 340.783 104.003 334.744 103.59C335.265 100.203 336.157 96.9001 337.873 94.7187C339.873 91.9436 341.37 88.8382 342.295 85.5443C342.295 85.513 342.295 85.4817 342.295 85.4504L341.341 84.845L340.387 84.2449C331.609 78.6818 324.334 73.4475 315.875 60.0252C313.856 56.8105 312.777 53.1209 311.911 50.1567C311.572 48.993 311.155 47.5474 310.753 46.5976C310.631 46.2428 310.442 45.915 310.195 45.6322C310.168 45.6046 310.136 45.5816 310.101 45.5643C310.049 45.5643 309.184 45.7574 306.785 49.8175L306.383 50.4907C305.752 51.5344 305.084 52.6773 304.505 53.8881C304.458 54.0864 304.406 54.2847 304.365 54.4882C303.953 56.5443 303.405 58.6996 302.8 60.881L302.706 61.7004L302.612 61.5438C302.059 63.5112 301.465 65.4891 300.876 67.4461C299.139 73.1866 297.496 78.6453 297.042 83.1594C296.109 92.3442 299.436 97.3906 304.714 102.14C306.56 103.804 306.487 105.923 306.414 108.016C306.316 109.303 306.126 110.581 305.846 111.841C300.229 113.172 294.675 117.289 290.398 123.609C280.75 137.866 259.842 164.414 244.837 174.929C237.953 179.762 232.321 182.079 223.898 179.626C222.297 179.162 218.088 177.841 212.758 176.166C205.097 173.76 194.593 170.462 186.16 167.941C170.431 163.245 170.253 163.579 169.727 164.596C169.633 164.779 169.523 165.003 169.398 165.264C169.142 165.16 168.876 165.061 168.579 164.951C167.891 164.723 167.225 164.435 166.587 164.09L166.112 163.782C159.27 159.352 158.555 158.887 153.57 151.284C150.122 146.007 145.507 144.724 141.986 144.598C139.201 138.461 136.323 132.251 134.07 128.024C132.761 125.571 130.622 122.544 127.858 122.07C127.149 121.957 126.423 122.016 125.74 122.241C125.058 122.466 124.44 122.851 123.936 123.364C123.576 123.693 122.893 124.23 122.08 124.929C118.95 127.481 113.735 131.745 110.783 135.847C106.877 141.253 108.379 146.07 110.523 151.054C109.538 151.654 108.79 152.575 108.405 153.663ZM265.5 207.676C253.615 218.39 242.501 217.905 222.078 212.77L220.539 212.383C183.422 203.047 179.338 202.014 160.49 195.767C160.412 194.723 161.106 192.187 162.19 188.983C169.184 189.385 190.191 189.505 214.484 189.604C237.99 189.719 265.073 189.849 283.368 190.303C283.368 190.616 283.368 190.924 283.368 191.237C277.516 196.654 271.513 202.249 265.5 207.676ZM492.751 176.036C492.016 176.165 491.271 176.233 490.525 176.239C481.262 175.869 472.24 176.985 463.52 178.066C460.458 178.447 457.287 178.838 454.132 179.161C440.755 180.544 427.159 181.249 413.672 181.703C410.798 180.284 407.45 178.687 403.883 177.006C394.276 172.555 382.192 167.32 378.37 166.334L377.848 168.422C382.062 169.507 397.525 176.307 409.077 181.839C403.393 182.011 397.729 182.152 392.117 182.287L381.41 182.554L380.185 182.59L378.959 182.621C372.654 182.799 366.312 183.008 359.954 183.295L358.849 183.347L357.738 183.404C347.949 183.874 338.144 184.547 328.433 185.586C325.68 176.093 323.176 167.32 321.017 159.56C320.788 158.731 320.558 157.911 320.334 157.108C317.591 147.192 315.458 139.161 314.164 133.738C316.501 134.031 320.626 134.26 325.445 134.48L327.901 134.573C329.93 134.652 332.042 134.72 334.16 134.782L336.11 134.84L338.196 134.892L339.151 134.918L340.335 134.949H341.534C349.19 135.127 355.772 135.221 357.415 135.241C364.262 135.335 370.854 135.377 376.711 135.377C380.179 135.377 383.392 135.377 386.255 135.33C394 135.241 397.452 135.069 399.069 134.86C429.031 148.784 465.726 164.768 492.751 176.036ZM526.567 189.406C526.468 191.269 526.359 193.147 526.239 195.016L523.741 219.277C523.219 222.309 522.698 224.428 522.176 225.179C515.871 222.137 508.038 218.917 499.083 215.525C504.768 213.959 517.769 212.832 522.906 212.832V210.693C518.786 210.693 500.877 211.882 496.068 214.382C487.995 211.35 479.087 208.12 469.616 204.738C454.805 199.415 439.498 193.909 424.322 187.944C424.014 187.303 422.715 186.337 417.834 183.796L417.646 183.702C429.892 183.242 442.21 182.548 454.367 181.291C457.533 180.967 460.714 180.571 463.791 180.19C472.824 179.068 481.351 178.013 490.446 178.379C492.403 178.328 494.346 178.024 496.225 177.476C510.004 183.164 520.919 187.475 526.567 189.39V189.406ZM412.092 329.651C410.814 325.907 409.83 322.068 409.15 318.17C408.577 315.097 401.051 289.917 399.377 284.322C403.231 283.508 414.058 282.725 425.041 282.496C442.419 282.141 448.583 283.273 449.553 283.967C449.991 285.611 452.02 290.094 454.8 296.226C458.972 305.479 464.745 318.144 467.838 327.454L467.885 327.606C468.13 328.342 468.349 329.051 468.552 329.74C470.602 336.712 470.639 341.534 468.631 344.431C467.134 346.596 464.458 347.729 460.505 347.885C432.828 348.981 419.784 348.465 412.916 331.781C412.618 331.087 412.352 330.382 412.092 329.651ZM469.851 326.755C466.722 317.362 460.938 304.618 456.724 295.323C454.117 289.583 451.864 284.604 451.572 283.32C451.494 283.04 451.356 282.78 451.168 282.558C450.98 282.337 450.745 282.159 450.482 282.037C444.442 278.707 402.767 280.748 397.677 282.558L396.717 282.898L397.009 283.874C397.103 284.187 406.438 315.279 407.043 318.557C407.715 322.351 408.665 326.091 409.886 329.745L407.643 329.824L406.506 329.86L405.385 329.902L401.625 330.017L400.535 330.048L399.434 330.079C391.173 330.314 382.881 330.46 374.401 330.46V332.595C383.089 332.595 391.559 332.438 399.997 332.198L401.098 332.167L402.188 332.135L406.162 332.01L407.283 331.974L408.41 331.932L410.689 331.854C413.662 339.342 417.792 344.034 423.602 346.795C429.412 349.555 436.875 350.375 446.476 350.375C450.732 350.375 455.42 350.218 460.594 350.015C465.22 349.832 468.516 348.355 470.394 345.636C472.714 342.275 472.839 337.046 470.779 329.714C478.67 329.662 487.223 329.714 495.161 329.751C499.928 329.777 504.434 329.803 508.387 329.803C520.471 351.57 528.883 367.899 531.272 373.879L434.267 374.688H432.812H431.3L419.513 374.787H418.251H416.968L389.744 375.012C384.122 364.141 370.474 323.196 356.199 277.549C363.214 276.63 370.437 276.181 377.666 275.926L378.949 275.884L380.226 275.842C381.867 275.793 383.51 275.753 385.155 275.722L386.255 275.696H387.361L392.576 275.607C402.949 275.43 413.682 275.252 424.176 274.235C431.571 273.52 440.99 273.854 450.101 274.177C459.212 274.501 468.73 274.835 476.136 274.099V273.875C487.755 293.309 498.4 311.819 507.208 327.627C503.558 327.627 499.474 327.627 495.182 327.58C487.025 327.533 478.222 327.491 470.148 327.548C470.023 327.298 469.945 327.032 469.851 326.755ZM475.009 272.059C467.88 272.674 458.883 272.356 450.163 272.059C440.984 271.73 431.493 271.396 423.957 272.126C413.526 273.134 402.866 273.311 392.529 273.483L386.761 273.588H385.661H384.555C382.615 273.629 380.673 273.682 378.729 273.744L377.441 273.786L376.148 273.833C369.212 274.104 362.286 274.569 355.537 275.471C353.592 269.246 351.636 262.947 349.696 256.617C349.586 256.262 349.477 255.912 349.373 255.573C349.268 255.234 349.2 255.02 349.117 254.743C349.117 254.67 349.07 254.597 349.049 254.519C348.961 254.242 348.877 253.965 348.794 253.689C348.684 253.334 348.575 252.984 348.47 252.645C345.774 243.878 343.099 235.064 340.507 226.432C344.101 225.874 347.725 225.526 351.36 225.388C350.623 225.955 350.151 227.074 349.946 228.744C349.774 230.21 350.697 234.411 352.804 235.528C353.159 235.719 353.554 235.821 353.957 235.826C354.624 235.807 355.261 235.543 355.746 235.084C357.618 233.519 357.138 230.445 356.158 228.3C355.594 227.079 354.723 225.842 353.691 225.289C358.588 225.054 364.382 224.882 370.656 224.767L371.767 224.741H372.878C380.299 224.605 388.305 224.527 396.242 224.485H398.449C413.051 224.423 427.216 224.485 436.76 224.485L445.574 224.517C455.697 240.298 465.658 256.455 475.009 272.059ZM354.598 230.153C354.963 231.332 355.12 232.814 354.369 233.435C354.03 233.728 353.91 233.665 353.847 233.618C352.841 233.096 351.985 229.965 352.105 228.963C352.262 227.653 352.554 227.236 352.627 227.131C352.997 227.251 354.019 228.316 354.598 230.158V230.153ZM436.76 222.325C426.549 222.288 412.42 222.231 398.031 222.294H395.81C387.768 222.335 379.705 222.419 372.252 222.565H371.141H370.03C356.064 222.862 344.548 223.395 339.886 224.318C336.037 211.491 332.366 199.065 329.038 187.61C338.77 186.567 348.606 185.914 358.432 185.45L359.542 185.398L360.648 185.346C367.183 185.053 373.686 184.824 380.19 184.667L381.41 184.636L382.631 184.599L392.164 184.365C399.116 184.192 406.146 184.02 413.213 183.785C417.041 185.674 420.066 187.271 421.557 188.216L422.183 189.129C429.485 199.744 436.896 210.917 444.218 222.299L436.76 222.325ZM340.46 132.799L339.25 132.768L338.055 132.721L334.879 132.632L333.054 132.58L331.302 132.523C329.669 132.47 328.11 132.413 326.639 132.356L323.839 132.241C318.79 132.016 315.119 131.766 313.663 131.5C312.62 126.443 312.85 121.704 314.284 117.702C314.409 117.352 314.55 117.007 314.696 116.658C314.842 116.308 314.999 115.969 315.165 115.614C315.301 115.343 315.431 115.092 315.583 114.805C315.583 114.753 315.64 114.701 315.671 114.649L315.708 114.591C315.875 114.299 316.057 114.012 316.229 113.73C316.26 113.687 316.288 113.642 316.313 113.594C316.454 113.391 316.605 113.198 316.751 112.994L317.012 112.645C317.973 111.393 319.105 110.282 320.376 109.347C323.682 106.92 327.76 105.693 332.313 105.626H332.684H333.388C333.742 105.626 334.102 105.652 334.462 105.678C340.199 106.038 346.572 108.136 353.055 111.94C361.639 116.966 376.946 124.528 395.1 133.003C385.092 133.462 360.231 133.279 340.46 132.799ZM302.977 189.16C300.37 188.821 295.723 188.56 289.579 188.346L286.544 188.252L285.563 188.226C285.636 185.695 285.715 183.206 285.798 180.784C285.892 178.034 285.949 175.164 286.012 172.122C286.179 163.881 286.367 154.832 287.358 146.388C290.09 146.388 292.823 146.388 294.998 146.415L294.31 148.345C291.264 156.727 287.884 166.12 298.018 177.601C298.477 178.123 298.962 178.645 299.478 179.167C300.867 180.586 302.333 181.927 303.869 183.185C303.713 184.192 303.4 186.28 302.977 189.134V189.16ZM295.994 143.372C295.907 143.675 295.813 143.977 295.712 144.28C293.626 144.249 290.669 144.217 287.629 144.228C289.235 132.434 292.594 122.101 299.952 117.242C301.568 116.187 303.348 115.407 305.22 114.936C304.563 118.025 304.286 119.507 304.698 120.264C300.537 128.76 299.008 133.128 295.994 143.346V143.372ZM284.875 228.697C284.99 216.496 285.167 203.929 285.459 192.166C285.459 191.551 285.475 190.94 285.506 190.335L287.368 190.387C294.555 190.601 299.973 190.877 302.67 191.237C301.335 200.407 299.212 215.353 297.569 229.036C293.313 228.833 289.141 228.707 284.875 228.671V228.697ZM684.617 302.254C676.272 302.254 650.926 295.803 626.399 289.567C608.171 284.933 590.935 280.554 580.723 278.785C580.157 278.725 579.607 278.561 579.101 278.3C579.445 277.564 581.667 275.962 583.315 274.772C585.479 273.207 587.884 271.469 589.699 269.554C592.995 272.074 605.407 275.091 626.273 279.552C630.868 280.534 634.498 281.306 635.447 281.64C639.619 283.012 649.847 285.293 660.674 287.714C674.134 290.72 692.56 294.838 694.224 296.341C694.37 296.471 694.535 296.579 694.714 296.659C691.746 298.788 685.759 302.144 684.617 302.227V302.254ZM708.685 177.591C712.498 178.013 718.725 178.707 720.185 179.553C718.652 183.347 717.202 194.739 715.533 207.854C714.135 218.813 712.602 230.842 710.839 239.87C705.708 240.047 700.518 240.011 697.947 239.786L697.76 241.916C699.194 242.046 701.634 242.114 704.492 242.114C706.344 242.114 708.362 242.083 710.401 242.02C709.9 244.52 709.254 246.99 708.466 249.415C708.143 250.349 707.533 252.89 706.693 256.45C700.944 256.617 695.209 257.105 689.514 257.911L689.853 259.998C695.268 259.226 700.721 258.754 706.187 258.584C704.67 265.039 702.615 273.781 700.55 281.097C698.145 289.604 696.664 292.771 695.903 293.951H694.458C690.521 292.166 678.812 289.478 661.148 285.533C650.368 283.127 640.193 280.836 636.115 279.516C635.072 279.166 631.562 278.42 626.727 277.382C620.328 276.019 611.572 274.146 604.301 272.293C593.688 269.585 591.404 268.218 590.914 267.737C593 259.028 595.717 251.523 598.596 243.586C602.189 233.67 605.897 223.421 608.354 210.494C608.974 207.212 611.379 194.645 613.611 183.154C615.801 173.891 617.454 166.245 617.783 162.963C629.189 163.72 696.195 174.882 700.852 176.37C702.26 176.844 705.238 177.178 708.685 177.565V177.591ZM575.695 186.462C583.955 186.531 592.194 187.291 600.327 188.732V188.759L601.37 188.946L602.413 189.14L603.097 189.27C604.828 189.63 606.288 189.98 607.384 190.314V190.241C607.717 190.329 608.025 190.413 608.302 190.496L607.697 192.547C606.351 192.156 604.458 191.712 602.174 191.269L601.13 191.076L600.087 190.888C599.827 193.101 599.42 195.491 598.924 197.975C595.743 197.484 591.513 196.373 586.705 195.11C578.361 192.923 568.973 190.444 560.994 190.105C558.502 190.614 556.101 191.494 553.87 192.714C562.35 190.914 575.716 194.421 586.163 197.166C590.971 198.429 595.206 199.546 598.486 200.062C597.522 204.561 596.327 209.268 595.195 213.725C593.662 219.736 592.343 224.929 591.884 228.472C591.545 231.059 591.068 233.625 590.455 236.16C586.914 235.408 583.153 234.818 579.216 234.218C573.03 233.268 566.657 232.282 560.712 230.565C560.767 230.312 560.767 230.051 560.712 229.798L559.601 229.761L558.501 229.709H557.979L556.253 229.605C555.392 229.542 554.532 229.48 553.687 229.407L552.743 229.318H552.602C551.721 229.234 550.881 229.14 550.104 229.046C548.091 228.801 546.542 228.525 546.047 228.274L547.027 226.369C547.437 226.5 547.857 226.592 548.284 226.646C548.717 226.714 549.238 226.787 549.849 226.86L550.422 226.928L551.272 227.022L553.468 227.241H553.713C555.58 227.408 557.578 227.549 559.356 227.637L560.868 227.7C561.536 227.7 562.151 227.731 562.678 227.731C563.012 227.517 563.393 227.283 563.841 227.016C566.079 225.712 565.609 223.525 565.192 221.599C564.775 219.674 564.279 217.378 565.859 214.914C567.794 211.893 561.687 200.923 561.609 200.824C559.851 197.917 555.408 196.675 550.24 196.065C549.802 196.012 549.353 195.966 548.905 195.924C548.914 195.883 548.927 195.843 548.941 195.804C549.087 195.362 549.272 194.934 549.494 194.525C550.364 192.982 551.623 191.694 553.145 190.789L553.374 190.663H553.322C558.767 187.282 567.909 186.473 575.701 186.473L575.695 186.462ZM288.729 129.757C287.163 134.454 286.075 139.297 285.48 144.212C282.513 144.244 279.634 144.317 277.542 144.468C281.73 139.26 285.563 134.177 288.729 129.757ZM171.375 166.12C175.479 166.689 200.059 174.413 212.143 178.206C217.483 179.882 221.697 181.207 223.324 181.677C232.524 184.333 238.855 181.729 246.089 176.657C255.08 170.352 266.126 158.433 275.67 146.764C276.713 146.524 280.765 146.404 285.209 146.362C284.228 154.832 284.041 163.824 283.874 172.038C283.811 175.07 283.754 177.935 283.66 180.664C283.576 183.096 283.498 185.591 283.425 188.127C265.422 187.673 238.954 187.543 214.495 187.423C190.895 187.308 170.399 187.209 162.915 186.838C164.866 181.332 167.609 174.59 169.612 169.987C169.832 169.527 170.083 169.083 170.363 168.656C170.436 168.551 170.499 168.44 170.551 168.322C170.783 168.214 170.982 168.045 171.126 167.832C171.27 167.62 171.354 167.373 171.369 167.117C171.38 166.887 171.326 166.659 171.213 166.459C171.27 166.36 171.322 166.24 171.375 166.12ZM112.515 137.084C115.315 133.211 120.395 129.057 123.43 126.573C124.291 125.869 124.995 125.31 125.381 124.94C125.844 124.46 126.473 124.177 127.138 124.147C127.257 124.147 127.376 124.157 127.493 124.178C128.964 124.428 130.674 126.198 132.187 129.031C134.32 133.029 137.032 138.832 139.692 144.687L139.274 144.739C135.248 145.313 131.196 147.479 130.612 149.379C129.996 151.372 130.09 152.849 130.925 153.903C132.338 155.699 135.264 155.516 138.362 155.318C140.969 155.151 143.979 154.963 144.792 156.293L145.079 156.758L145.762 158.323C145.846 158.511 145.981 158.762 146.19 159.143C147.196 160.9 148.016 162.757 148.636 164.685C148.714 165.264 148.782 165.911 148.85 166.679C148.94 167.504 148.989 168.333 148.996 169.163C148.878 169.698 148.662 170.208 148.36 170.666C147.927 171.344 147.436 172.137 146.925 172.977C146.571 173.447 146.169 173.99 145.7 174.642L145.387 175.07C143.155 178.118 142.148 179.803 141.992 180.92C141.668 181.406 141.35 181.865 141.058 182.272C138.111 186.358 135.733 189.056 133.72 188.92C132.103 188.816 130.32 186.922 128.27 183.128C127.749 182.126 127.227 181.16 126.706 180.21L112.88 151.09C110.632 145.997 109.067 141.864 112.515 137.084Z" fill="black"/>
<path d="M98.0788 123.802L98.7777 121.762C97.2131 121.24 95.226 120.024 93.1034 118.751C90.9808 117.477 88.6808 116.099 86.7303 115.374L85.9845 117.378C87.7525 118.036 89.9117 119.335 92.003 120.588C94.2247 121.939 96.3213 123.197 98.0788 123.802Z" fill="black"/>
<path d="M115.258 109.315L115.305 109.378C114.956 108.856 111.873 102.547 111.503 101.733L109.521 102.63C109.552 102.703 113.146 110.166 113.573 110.683L115.258 109.315Z" fill="black"/>
<path d="M132.99 107.499C134.44 104.608 135.561 102.317 135.707 101.263L133.585 100.971C133.48 101.759 131.916 104.869 131.076 106.539C130.664 107.358 130.309 108.073 130.116 108.496L132.067 109.373C132.244 108.992 132.594 108.298 132.99 107.499Z" fill="black"/>
<path d="M147.322 122.284C149.215 121.099 151.807 119.471 152.5 119.152L151.598 117.211C150.842 117.561 148.876 118.777 146.185 120.478C144.985 121.229 143.853 121.939 143.348 122.231L144.417 124.084C144.954 123.766 146.054 123.077 147.322 122.284Z" fill="black"/>
<path d="M336.856 163.297C336.175 162.985 335.411 162.901 334.679 163.057C333.946 163.213 333.283 163.601 332.788 164.163C331.698 165.504 331.875 167.545 333.263 169.617C334.885 172.043 336.965 173.171 338.478 173.171C338.689 173.171 338.899 173.147 339.104 173.097C339.46 173.02 339.783 172.831 340.025 172.558C340.267 172.285 340.415 171.942 340.449 171.579C340.945 165.431 337.826 163.683 336.856 163.297ZM338.327 171.026C337.737 170.953 336.334 170.368 335.041 168.416C334.055 166.945 334.087 165.943 334.446 165.499C334.657 165.297 334.926 165.167 335.215 165.125C335.504 165.084 335.799 165.135 336.058 165.269C337.299 165.781 338.525 167.55 338.327 171.026Z" fill="black"/>
<path d="M343.276 194.781C341.534 195.209 341.263 197.771 341.19 198.611C341.075 199.655 341.232 203.778 344.058 204.592C344.49 204.723 344.937 204.791 345.388 204.795C345.809 204.814 346.228 204.729 346.609 204.546C346.989 204.364 347.318 204.091 347.568 203.752C348.893 201.93 347.725 198.497 346.473 196.639C345.122 194.666 343.891 194.624 343.276 194.781ZM345.774 202.546C345.623 202.698 345.18 202.698 344.616 202.546C343.38 202.186 343.213 199.504 343.286 198.851C343.304 198.172 343.483 197.507 343.808 196.91C344.251 197.134 345.211 198.366 345.732 200.093C346.155 201.502 345.998 202.332 345.774 202.546Z" fill="black"/>
<path d="M367.626 263.187C367.426 262.612 367.185 262.053 366.906 261.512C366.244 260.244 365.185 258.835 363.715 258.741H363.563H363.532C363.118 258.746 362.712 258.863 362.359 259.08C361.477 259.602 360.763 260.739 360.226 262.472C359.897 263.516 360.805 268.406 361.79 269.084C363.193 270.07 364.398 270.561 365.441 270.561C366.014 270.567 366.573 270.383 367.032 270.039C368.596 268.88 368.487 266.203 367.882 263.975C367.788 263.709 367.71 263.432 367.626 263.187ZM365.728 268.322C365.503 268.489 364.685 268.484 363.157 267.424C362.807 266.662 362.176 263.745 362.275 263.072C362.838 261.282 363.407 260.87 363.563 260.87C363.908 260.87 364.883 261.773 365.603 263.881C366.406 266.235 366.192 267.967 365.728 268.317V268.322Z" fill="black"/>
<path d="M81.7393 451.277C84.2583 453.495 87.0746 456.099 90.0525 458.854C99.2523 467.356 109.672 476.994 119.383 482.949C120.934 483.905 122.417 484.967 123.822 486.127C125.324 487.327 126.455 488.157 127.65 488.157C128.745 488.157 129.892 487.453 131.431 485.689C132.4 484.599 133.431 483.566 134.518 482.594C136.223 481.029 137.35 479.985 137.126 478.68C137.096 478.498 137.038 478.322 136.954 478.158C138.602 476.843 141.689 473.514 148.047 465.18C149.423 463.379 158.138 451.736 158.263 451.047C158.66 448.96 158.295 447.217 157.189 445.954C156.083 444.691 154.581 444.127 152.782 443.804C154.957 442.285 157.643 440.287 160.219 438.136L159.317 437.489L158.425 436.827C151.791 431.848 144.808 425.142 139.905 419.819L139.186 419.026L138.466 418.227C136.335 420.068 134.3 422.017 132.369 424.067C132.479 423.582 132.56 423.09 132.609 422.595L132.641 422.074L132.302 421.724C131.78 421.202 131.509 420.899 107.884 422.209L106.027 422.314L105.417 422.074L105.219 422.016C101.594 421.348 88.7174 414.611 81.7967 410.989C76.8213 408.38 76.79 408.38 76.4197 408.38C70.8811 408.124 67.7727 408.38 65.9891 409.424C61.9525 411.02 58.6877 414.992 57.5716 418.149C56.9823 419.783 56.9614 421.155 57.5143 422.126C60.9042 427.991 69.7754 440.741 81.7393 451.277ZM76.1798 410.514C76.7013 410.749 78.7144 411.798 80.8266 412.904C90.4488 417.94 101.01 423.342 104.749 424.119L105.698 424.49H105.928L108.014 424.375C120.322 423.691 127.832 423.378 130.335 423.43C130.163 424.323 129.876 425.32 129.579 426.358C129.423 426.88 129.261 427.48 129.105 428.075C128.482 430.147 128.219 432.312 128.328 434.473C128.693 438.726 131.405 442.99 140.401 445.683C140.713 445.767 141.033 445.821 141.355 445.844C142.373 445.915 143.394 445.915 144.411 445.844L145.178 445.808C146.044 445.761 146.983 445.714 147.942 445.693C148.636 445.693 149.335 445.693 150.028 445.693C152.38 445.782 154.555 446.184 155.604 447.384C156.235 448.104 156.438 449.117 156.219 450.473C154.107 453.678 138.044 475.695 135.133 476.854C130.961 476.332 116.958 466.14 100.092 451.381C83.7993 437.129 70.396 423.467 68.216 418.895C66.8861 416.109 65.6397 413.092 66.4637 411.85C67.2095 410.728 69.9788 410.441 73.0037 410.441C74.0572 410.431 75.142 410.467 76.1798 410.514ZM59.616 418.864C60.5617 416.555 62.0955 414.534 64.0647 413.004C64.1012 414.793 64.9669 417.038 66.2812 419.788C68.9983 425.481 84.9832 440.975 98.6838 452.963C105.406 458.839 127.676 477.908 134.8 478.931C134.863 478.96 134.923 478.993 134.982 479.03C134.411 479.749 133.77 480.41 133.068 481.002C131.92 482.025 130.834 483.114 129.814 484.264C128.771 485.47 128.082 486.033 127.603 485.997C127.123 485.96 126.231 485.292 125.162 484.431C123.684 483.219 122.128 482.105 120.505 481.096C110.971 475.257 100.629 465.691 91.5076 457.252C88.5192 454.492 85.6925 451.877 83.1631 449.644C71.413 439.295 62.7087 426.791 59.4178 421.03C59.2353 420.758 59.1988 420.023 59.616 418.869V418.864Z" fill="black"/>
<path d="M469.423 505.123C470.258 506.548 472.031 508.212 475.875 508.045C479.004 507.91 482.707 508.212 486.603 508.536C490.102 508.823 493.758 509.12 497.315 509.12C504.209 509.12 510.744 507.993 515.047 503.458C524.288 493.71 527.532 487.5 532.023 478.931C533.545 476.008 535.272 472.705 537.426 468.916C540.727 463.113 545.916 452.613 543.621 447.483C543.285 446.738 542.771 446.086 542.124 445.584C541.478 445.083 540.719 444.748 539.913 444.608C539.216 444.448 538.554 444.16 537.963 443.757C537.491 443.407 536.951 443.16 536.378 443.034C535.804 442.907 535.211 442.903 534.635 443.021C533.561 441.456 531.261 439.953 527.501 437.63L526.76 437.171C525.931 436.649 524.992 436.054 523.981 435.407C515.115 429.708 507.438 425.2 503.782 427.778C503.284 428.159 502.876 428.645 502.587 429.201C502.297 429.757 502.134 430.371 502.108 430.997C500.413 430.022 498.394 428.947 496.094 427.866C495.922 428.179 495.745 428.498 495.573 428.811C495.401 429.124 495.229 429.442 495.051 429.755C491.056 437.088 488.037 442.802 486.003 446.659C485.831 446.987 485.669 447.306 485.507 447.603C485.346 447.901 485.174 448.255 484.986 448.558C486.243 449.137 487.666 449.743 489.158 450.286C489.078 450.372 489.005 450.465 488.939 450.562C488.219 451.606 488.099 454.836 488.099 461.699C488.099 463.812 486.013 476.52 485.194 477.913C484.444 478.617 483.606 479.22 482.702 479.708C481.601 480.392 480.094 481.331 478.07 482.792C477.511 483.163 476.93 483.498 476.328 483.794C474.242 484.885 471.661 486.242 470.988 489.457C470.915 489.801 470.759 490.339 470.592 490.907C470.127 492.473 469.549 494.357 469.689 495.766C468.698 497.686 467.661 502.096 469.423 505.123ZM473.121 489.864C473.585 487.635 475.504 486.633 477.356 485.657C478.05 485.318 478.72 484.929 479.359 484.494C481.319 483.079 482.733 482.203 483.865 481.498C484.835 480.953 485.744 480.306 486.576 479.567C487.922 479.353 491.922 478.68 492.449 478.591C498.858 477.511 498.859 477.511 499.14 477.188L498.295 476.447L498.066 475.45C497.544 475.559 490.931 476.681 487.682 477.219C488.939 472.757 490.29 462.962 490.29 461.667C490.29 458.975 490.29 452.67 490.749 451.752C490.973 451.428 491.75 451.548 492.997 451.752C494.516 452.124 496.096 452.179 497.638 451.914C499.797 451.439 502.097 449.889 504.037 445.808C504.457 444.917 504.828 444.004 505.148 443.073L505.299 442.625C505.821 441.189 506.342 439.655 506.342 438.22C506.364 437.223 506.02 436.253 505.378 435.491C505.139 435.209 504.87 434.955 504.574 434.734C504.486 434.316 504.413 433.92 504.361 433.544C504.296 433.098 504.255 432.648 504.235 432.198C504.194 430.836 504.465 429.902 505.054 429.484C507.829 427.527 517.607 433.8 522.864 437.166C523.908 437.823 524.836 438.429 525.676 438.951L526.416 439.41C530.557 441.967 532.841 443.381 533.196 444.816C533.551 446.252 532.205 448.605 529.754 452.853C528.497 455.029 526.938 457.738 525.133 461.145L525.003 461.391C508.768 492.035 502.332 495.636 500.314 495.761H500.246C482.717 496.851 473.366 496.408 471.88 495.521C471.791 494.555 472.339 492.708 472.709 491.461C472.865 490.85 473.027 490.297 473.121 489.864ZM536.847 445.568C537.641 446.094 538.525 446.471 539.454 446.679C539.932 446.746 540.385 446.933 540.77 447.224C541.155 447.514 541.459 447.898 541.655 448.339C543.032 451.408 540.753 458.698 535.559 467.836C533.384 471.656 531.647 474.98 530.114 477.913C525.702 486.357 522.52 492.452 513.482 501.981C507.667 508.118 496.564 507.2 486.769 506.402C482.801 506.073 479.056 505.765 475.77 505.88C473.564 505.974 472.041 505.358 471.259 504.017C470.216 502.195 470.597 499.32 471.259 497.556C472.761 498.109 475.885 498.574 482.529 498.574C486.827 498.574 492.605 498.38 500.355 497.895H500.428C505.67 497.572 514.567 485.626 526.87 462.408L527 462.163C528.789 458.787 530.338 456.099 531.584 453.939C534.093 449.586 535.454 447.045 535.36 445.067C535.899 445.052 536.426 445.23 536.847 445.568Z" fill="black"/>
</svg>
