<svg width="484" height="724" viewBox="0 0 484 724" fill="none" xmlns="http://www.w3.org/2000/svg">
<path d="M218.696 351.683L251.859 350.337L234.381 404.166L218.696 378.597V351.683Z" fill="white"/>
<path d="M284.625 257.505C287.02 264.422 299.739 280.185 319.932 287.113L385.273 301.325C385.273 299.801 385.328 298.289 385.406 296.782C392.013 299.729 402.137 297.894 405.41 298.45L385.506 295.37C386.462 281.308 390.413 267.881 390.957 254.086C391.029 252.245 327.994 239.457 320.804 236.46C317.615 235.131 308.513 213.802 303.184 199.146L324.677 186.296L316.231 170.772L341.792 154.648C345.937 151.53 349.89 148.164 353.627 144.567L367.125 147.52C367.169 147.52 370.142 147.77 370.503 147.77C375.098 147.77 376.276 144.195 377.038 140.158L384.65 85.1124C385.645 75.1041 387.534 70.7839 378.143 69.822L351.177 65.4239C345.237 64.7011 343.92 72.4686 343.953 72.4742L339.119 103.122C332.673 102.683 322.499 106.347 320.304 113.058C317.92 120.364 317.526 123.911 317.526 131.757L301.511 143.8L300.4 141.754L291.904 147.314C284.53 117.139 263.982 133.892 256.586 140.642C258.764 131.746 261.692 120.942 261.692 117.289C261.692 116.8 283.819 111.462 283.574 98.7126C283.163 77.1169 276.412 61.2927 267.844 52.73C275.667 46.4415 281.118 39.3856 279.69 32.2631C275.801 12.9415 241.083 30.5116 230.497 48.4431C227.063 54.2535 225.246 70.1278 231.27 73.7752C230.758 77.4392 230.463 81.1301 230.386 84.8289C230.08 96.1883 229.275 111.479 227.997 118.329C215.383 110.545 196.179 114.598 180.815 142.883C184.621 136.36 136.695 98.2455 104.072 156.383C103.21 157.928 96.5535 168.265 88.274 181.075C73.9878 203.182 54.8562 232.668 52.2446 237.15C36.8359 263.566 48.2993 277.961 68.0422 278.4L127.549 279.729C121.692 296.493 117.769 309.37 117.869 313.613L125.709 313.707C121.875 328.581 122.375 342.759 124.893 355.498C128.816 375.175 137.673 391.405 143.168 401.452L143.068 401.519H143.207C143.946 402.87 144.63 404.11 145.224 405.228L145.263 405.878L143.068 401.519L83.4008 574.246C79.4278 582.847 61.1408 606.773 58.757 614.685C52.6447 613.056 48.3049 628.963 55.8231 630.492C67.3198 632.839 59.3293 627.495 62.2744 636.914C63.2912 640.172 78.0887 638.627 77.0607 638.838C71.843 653.917 92.0637 647.517 91.6525 648.941C86.7682 666.733 109.289 654.94 107.511 658.666C102.916 668.285 114.841 669.191 117.391 668.118C128.038 663.72 120.269 670.726 124.565 672.911C139.668 680.584 144.596 669.052 144.947 668.969C146.819 678.115 168.068 673.533 162.572 659.405C167.757 629.047 137.506 631.493 135.806 629.536C131.283 624.332 126.471 610.592 131.149 596.37L128.688 595.257L182.032 478.816L179.059 472.962H179.22L245.661 605.483C245.044 606.217 244.683 607.484 246.773 610.542C252.846 627.879 253.079 646.717 258.086 653.912C256.419 655.485 257.903 669.48 260.125 669.958C268.255 671.738 270.2 659.861 272.456 666.811C273.706 670.659 280.118 667.067 281.902 665.555C287.586 660.767 285.03 658.371 288.081 661.034C296.31 668.218 301.706 655.241 301.789 655.207C307.118 658.176 302.962 659.494 312.436 657.765C320.771 656.241 323.127 648.941 323.605 649.575C327.194 654.301 335.524 652.649 337.908 648.463C341.092 642.825 339.141 644.715 340.497 645.249C346.054 647.434 346.609 647.123 351.91 644.053C354.483 642.569 355.895 638.332 356.039 638.282C356.795 640.367 362.257 640.845 364.096 640.384C366.19 639.878 368.05 638.675 369.371 636.973C370.693 635.271 371.397 633.17 371.37 631.015L369.614 624.971C371.086 623.303 356.222 596.386 329.167 602.73C302.45 609.002 299.772 594.974 295.321 591.971L271.261 516.737C251.414 454.646 240.286 419.835 220.44 357.744C225.947 357.683 231.445 357.265 236.898 356.493C236.932 363.165 236.965 369.721 236.965 375.953V356.493C242.123 355.807 247.167 354.442 251.968 352.434V350.888L236.965 325.884C242.144 326.023 247.401 326.107 252.785 326.107L236.965 325.673V315.053L265.749 315.398C265.782 315.398 282.13 251.206 290.17 206.93L295.493 203.75L284.625 257.505ZM338.252 108.565L337.98 110.3C336.823 112.011 335.522 113.62 334.09 115.109C333.401 115.805 332.579 117.217 331.545 117.573C331.879 117.206 335.529 112.452 338.252 108.565ZM145.263 405.289C145.641 406.001 145.991 406.668 146.297 407.279L160.189 435.036H159.933L145.247 405.889C145.269 405.684 145.263 405.489 145.263 405.289ZM162.489 659.577C161.728 660.495 159.122 660.834 155.954 660.895C159.472 660.523 161.917 659.989 162.461 659.577H162.489ZM178.476 471.727L160.45 435.953H160.705L178.642 471.722L178.476 471.727ZM236.893 325.662L215.227 325.061C222.34 325.362 229.519 325.662 236.865 325.856C236.798 334.552 236.832 343.71 236.865 352.773L252.785 350.786L254.1 344.954L263.063 315.797H213.319C213.035 315.752 184.161 306.518 184.189 315.398H174.33C179.725 315.148 167.773 315.426 172.985 315.398L159.541 314.091L144.752 313.907L134.022 313.774L237.004 315.053C236.937 318.461 236.893 322.02 236.865 325.662H236.893Z" fill="white"/>
<path d="M422.458 319.835L424.803 305.934L415.034 306.273L406.177 300.213L395.841 299.618L394.93 314.63C396.819 321.436 416.812 323.393 422.458 319.835Z" fill="white"/>
<path d="M397.853 229.098L395.63 238.684L390.685 246.135L396.241 246.908L396.336 260.458C395.08 260.135 393.308 259.735 390.59 259.257L384.5 287.5L409.222 283.955C408.299 285.623 408.244 287.819 409.361 290.149C410.878 262.5 376.944 288.336 379 292.801C379.917 294.781 409.305 301.13 415.473 304.377C420.613 307.096 433.988 305.239 433.41 297.105C433.288 295.348 434.099 294.119 435.077 292.801C435.527 292.36 435.91 291.856 436.216 291.305C437.55 289.525 438.28 287.364 438.3 285.139C438.304 282.888 438.68 280.652 439.411 278.523C439.584 278.075 439.718 277.614 439.811 277.144C439.967 276.588 440.123 275.998 440.278 275.298C441.445 270.121 437.983 266.507 432.743 264.177L434.966 252.284L441.584 253.202L438.845 244.027L439.195 234.531L397.853 229.098ZM412.472 281.431C411.383 281.739 410.413 282.374 409.694 283.249C409.992 282.758 410.397 282.339 410.878 282.025C411.358 281.71 411.903 281.507 412.472 281.431Z" fill="white"/>
<path d="M335.891 174.748C335.65 174.555 335.391 174.386 335.118 174.242L335.891 174.748Z" fill="white"/>
<path d="M365.969 194.464L376.582 201.414C375.304 196.193 374.248 190.889 365.969 194.464Z" fill="white"/>
<path d="M387.29 208.42L376.599 201.414C377.827 206.368 379.305 211.25 387.29 208.42Z" fill="white"/>
<path d="M173.597 323.949L190.528 324.411L215.227 325.061C201.369 324.505 187.75 323.86 173.597 323.949Z" fill="white"/>
<path d="M93.8974 172.335C88.3407 171.15 89.0631 169.51 85.8235 174.058C81.3782 180.297 74.0211 193.569 74.0211 193.569C74.2545 194.681 78.083 194.175 79.2222 195.042L93.8974 172.335Z" fill="white"/>
<path d="M396.975 227.831L394.547 238.223L388.707 247.019L395.102 247.903L395.18 259.023C394.274 258.817 393.169 258.584 391.802 258.334C391.918 256.949 392.018 255.554 392.074 254.169C392.135 252.601 392.146 252.229 354.844 243.727C339.886 240.313 324.422 236.788 321.204 235.448C319.882 234.892 315.609 227.319 309.352 212.051C307.607 207.797 305.951 203.522 304.54 199.68L303.54 200.275L302.55 200.869L296.533 204.467L295.21 205.256L293.888 206.046L283.508 257.277L283.447 257.583L283.547 257.878C286.008 264.984 299.105 281.175 319.565 288.192L386.412 302.743V301.325C386.412 300.352 386.412 299.379 386.467 298.406C389.139 299.202 391.909 299.616 394.697 299.635L393.786 314.781L393.836 314.964C394.458 317.188 396.669 319.112 400.226 320.496C404.422 321.997 408.85 322.75 413.306 322.72C417.362 322.72 421.019 322.092 423.058 320.813L423.491 320.541L425.925 306.157C427.619 305.79 429.236 305.132 430.704 304.211C433.41 302.448 434.727 299.963 434.521 297.033C434.427 295.704 435.033 294.753 435.927 293.574C436.433 293.064 436.865 292.486 437.211 291.856C438.629 289.918 439.407 287.585 439.434 285.184C439.414 283.052 439.751 280.933 440.428 278.912L440.462 278.795C440.626 278.359 440.758 277.911 440.856 277.455C441.012 276.899 441.173 276.265 441.334 275.542C441.693 274.115 441.693 272.62 441.334 271.193C440.974 269.765 440.266 268.45 439.272 267.363C437.785 265.725 435.984 264.402 433.977 263.471L435.85 253.524L443.145 254.536L439.973 243.883L440.356 233.535L396.975 227.831ZM436.294 251.311L428.142 250.199L402.921 246.663L397.364 245.89L396.253 245.734L395.108 245.573L392.635 245.234L396.419 239.535L437.972 245.028L439.989 251.795L436.294 251.311ZM438 235.515L437.739 242.743L397.086 237.35L398.72 230.361L438 235.515ZM386.584 296.026C387.012 289.226 388.162 282.526 389.285 276.01C390.157 270.972 391.035 265.807 391.585 260.608C393.102 260.891 394.269 261.164 395.197 261.364V262.12C395.436 265.851 401.393 268.792 412.9 270.822C415.023 271.2 417.162 271.5 419.202 271.745C422.263 272.718 427.47 275.526 429.454 278.834C430.398 280.413 430.498 281.881 429.754 283.316C429.565 283.767 429.288 284.176 428.937 284.517C428.587 284.858 428.171 285.125 427.715 285.301C425.82 285.89 423.041 284.4 420.352 282.96C417.84 281.62 415.262 280.241 412.917 280.274V280.163C412.673 280.213 412.439 280.269 412.211 280.335C411.959 280.372 411.71 280.427 411.467 280.502C410.362 280.871 409.417 281.607 408.789 282.587C408.527 282.911 408.3 283.262 408.111 283.633C407.138 285.556 407.149 287.875 408.111 290.199C407.988 290.36 407.822 290.56 407.672 290.755C406.56 292.101 404.638 294.403 404.982 297.305C403.481 297.218 401.977 297.218 400.476 297.305C396.442 297.427 390.807 297.616 386.584 296.026ZM405.349 298.689C405.388 298.806 405.438 298.923 405.488 299.04H405.288L405.349 298.689ZM432.249 297.183C432.393 299.268 431.454 300.986 429.47 302.287C425.581 304.845 419.007 304.967 415.99 303.399C414.512 302.615 413.262 301.987 412.261 301.481C409.005 299.84 408.138 299.368 407.633 298.272C406.566 295.965 407.949 294.013 409.45 292.212L409.7 291.917C414.323 295.548 419.646 297.477 424.847 297.477C426.09 297.478 427.331 297.366 428.554 297.144C429.838 296.916 431.093 296.543 432.293 296.032C432.239 296.413 432.224 296.798 432.249 297.183ZM437.133 285.112C437.066 288.32 435.738 290.055 434.449 291.739L434.199 292.062C432.849 293.379 430.671 294.414 428.126 294.886C425.297 295.409 417.924 295.909 410.3 289.448C409.516 287.697 409.45 286.001 410.133 284.65C410.133 284.6 410.194 284.55 410.222 284.494H410.267C410.367 284.303 410.478 284.117 410.6 283.938C411.148 283.286 411.874 282.807 412.689 282.559C414.462 282.387 416.907 283.671 419.279 284.961C421.808 286.313 424.403 287.697 426.792 287.697C427.334 287.7 427.874 287.621 428.392 287.463C429.745 287.009 430.871 286.051 431.538 284.789V284.861C433.57 284.59 435.52 283.885 437.255 282.793C437.2 283.471 437.155 284.227 437.133 285.112ZM437.566 268.859C438.322 269.677 438.861 270.672 439.133 271.752C439.406 272.832 439.404 273.963 439.128 275.042C439.006 275.598 438.883 276.065 438.761 276.516C438.761 276.621 438.722 276.732 438.706 276.844C438.561 277.355 438.422 277.817 438.289 278.25C437.617 279.852 436.094 281.509 432.465 282.365C432.702 280.723 432.339 279.051 431.443 277.655C430.232 275.637 428.109 273.813 425.814 272.368C428.504 272.562 430.498 272.635 431.199 272.635H431.432L432.31 272.573L433.582 265.84C435.084 266.593 436.435 267.617 437.566 268.859Z" fill="black"/>
<path d="M372.531 630.97V630.809L370.864 624.965C370.981 624.326 370.864 623.164 369.708 620.979L369.658 620.812H369.619C369.403 620.395 369.153 619.945 368.858 619.45C367.402 617.003 353.905 595.724 328.956 601.579C308.452 606.394 302.778 599.066 299.022 594.218C298.252 593.12 297.355 592.118 296.349 591.232L222.012 358.817C226.621 358.713 231.221 358.365 235.793 357.772C235.826 364.099 235.854 370.104 235.854 375.937H238.132C238.132 369.999 238.132 363.888 238.071 357.438C242.194 356.813 246.246 355.783 250.168 354.363L234.83 401.026L235.854 404.615L264.515 316.499H266.254L266.593 316.159C266.832 315.92 266.943 315.809 271.483 297.21C273.972 287.041 277.723 271.395 281.485 254.614C285.649 236.08 288.9 220.408 291.237 207.597L289.926 208.381L288.614 209.165L241.438 237.372C221.434 248.492 206.275 254.008 195.623 254.008C191.093 254.008 187.368 253.013 184.449 251.022C172.652 243.027 175.464 220.997 178.181 199.669C179.337 190.611 180.404 182.059 180.404 174.698H182.682C182.682 182.204 181.571 190.822 180.42 199.958C177.792 220.591 175.069 241.926 185.705 249.132C194.751 255.248 212.599 250.772 240.277 235.393L288.181 206.752L289.137 206.196L289.225 206.146L290.448 205.418L291.754 204.634L294.482 203.005L295.805 202.209L297.127 201.42L301.739 198.668L302.734 198.073L303.728 197.472L323.093 185.896L315.186 171.362L315.809 172.368L316.453 171.962L317.42 171.351L317.687 171.184L342.353 155.615L342.436 155.56C346.452 152.536 350.289 149.281 353.927 145.813L367.002 148.676H367.091L367.791 148.732C369.369 148.86 370.214 148.921 370.458 148.921C376.504 148.921 377.554 143.361 378.116 140.38L385.739 85.257C385.862 84.0004 386.006 82.8328 386.134 81.7486C386.69 77.1336 387.078 73.8031 385.273 71.5401C384.011 69.9666 381.844 69.0936 378.249 68.7267L351.271 64.323C345.676 63.6447 343.27 69.2215 342.786 72.2629C342.784 72.2944 342.784 72.326 342.786 72.3574L338.113 101.976C331.145 101.921 321.443 105.869 319.181 112.735C316.798 120.041 316.364 123.706 316.342 131.217L301.895 142.082L301.645 142.271L300.722 142.96L300.05 143.466L300 143.372L293.187 147.82L292.193 148.476L291.193 149.127L280.246 156.288L279.212 156.966L231.981 187.892C231.827 188.06 231.618 188.166 231.392 188.192L225.157 189.632L230.119 186.385V186.413L231.053 185.902C234.737 183.861 237.026 182.31 238.571 180.842L290.642 146.769L291.626 146.124L292.604 145.485C290.287 137.055 286.692 131.768 281.841 129.711C273.772 126.285 264.382 132.535 258.58 137.372C258.719 136.816 258.853 136.288 258.992 135.743C260.831 128.409 262.576 121.454 262.82 118.006L263.665 117.706C268.933 115.838 284.952 110.155 284.73 98.6681C284.33 77.6174 277.973 61.7987 269.572 52.7912C277.145 46.4971 282.285 39.3801 280.818 32.0407C279.79 26.9142 276.634 23.7672 271.689 22.9276C259.564 20.8759 237.893 33.6865 229.525 47.8594C225.907 53.9755 224.085 69.5774 230.053 74.3091C229.592 77.7855 229.317 81.2842 229.23 84.79C228.858 98.4457 228.047 110.306 227.141 116.511C224.726 115.231 222.113 114.37 219.411 113.964C205.731 111.89 192.184 121.231 181.448 139.496C181.382 139.363 181.304 139.23 181.226 139.091C178.059 133.603 165.112 123.428 148.125 123.428H147.853C135.667 123.505 118.008 129.182 103.077 155.799C102.449 156.911 98.6316 162.86 93.375 171.039C92.4359 170.806 91.708 170.572 91.1079 170.378C88.0573 169.377 87.3683 169.916 84.8956 173.391C80.4502 179.613 73.3266 192.468 73.0265 193.013L72.8209 193.38L72.9042 193.797C73.1987 195.226 74.8713 195.398 76.4883 195.565C76.7495 195.593 77.1051 195.626 77.4496 195.676C65.2527 214.536 53.3114 233.024 51.2555 236.543C41.5757 253.141 43.265 263.271 46.3822 268.848C50.0997 275.52 57.7845 279.284 68.0144 279.512L125.959 280.808C120.342 297.005 116.624 309.376 116.724 313.613V314.725L124.22 314.814C115.257 352.123 132.794 384.916 141.846 401.452L82.3172 573.817C80.5947 577.521 76.166 584.137 71.4817 591.143C64.6081 601.413 59.6405 609.008 57.9568 613.445C56.9313 613.426 55.9266 613.735 55.0896 614.329C51.9667 616.453 49.9941 622.113 50.8665 626.478C51.4221 629.291 53.0892 631.115 55.5674 631.615C57.1769 631.971 58.8119 632.2 60.4573 632.299C60.3128 633.411 60.4573 634.979 61.1574 637.264C61.9076 639.661 66.2029 640.5 75.4825 640.044C74.6768 643.164 74.9658 645.605 76.3327 647.373C79.1388 650.942 85.4234 650.347 89.1797 649.992L90.2133 649.903C89.3742 653.689 89.7687 656.402 91.3968 658.171C94.2641 661.284 100.065 660.183 103.899 659.461C104.616 659.327 105.433 659.171 106.055 659.088C104.494 662.98 105.633 665.427 106.928 666.794C109.789 669.825 115.674 670.075 117.797 669.202C120.731 667.99 121.803 667.84 122.197 667.862C122.186 668.192 122.153 668.521 122.097 668.846C121.897 670.286 121.542 672.705 124.02 673.956C127.621 675.785 130.977 676.692 134.022 676.692C136.089 676.714 138.131 676.243 139.979 675.316C141.827 674.39 143.427 673.035 144.646 671.365C145.668 672.944 147.261 674.066 149.092 674.495C151.389 675.042 153.79 674.975 156.054 674.3C158.317 673.626 160.364 672.368 161.989 670.653C164.689 667.651 165.289 663.636 163.706 659.322C165.062 651.093 163.956 644.415 160.416 639.477C154.893 631.765 144.902 630.175 139.529 629.324C138.527 629.2 137.535 629.003 136.561 628.735C132.077 623.486 127.782 610.181 132.199 596.753L132.516 595.791L130.166 594.679L182.132 481.302L244.366 605.405C243.483 607.228 244.683 609.436 245.778 611.048C248.556 619.055 250.107 627.395 251.468 634.768C252.957 642.825 254.246 649.825 256.791 653.945C255.68 656.87 256.608 664.359 257.48 667.467C258.119 669.691 258.864 670.803 259.908 671.059C260.523 671.196 261.151 671.265 261.781 671.265C265.504 671.265 267.943 668.696 269.483 667.072C269.89 666.612 270.334 666.187 270.811 665.799C271.07 666.219 271.269 666.674 271.4 667.15C271.561 667.71 271.862 668.219 272.276 668.628C272.689 669.038 273.201 669.335 273.761 669.491C276.99 670.409 281.68 667.267 282.652 666.411C284.376 665.058 285.792 663.352 286.803 661.407L287.358 661.874C289.664 663.892 292.026 664.654 294.371 664.187C298.138 663.414 300.806 659.572 302.273 656.803C302.892 657.223 303.452 657.724 303.94 658.293C305.484 659.961 306.301 660.028 312.641 658.849C319.081 657.67 322.21 653.289 323.605 651.22C324.565 652.072 325.691 652.716 326.913 653.11C328.134 653.504 329.424 653.641 330.7 653.511C334.251 653.272 337.469 651.482 338.897 648.957C339.547 647.801 340.008 646.95 340.297 646.333C345.942 648.557 346.932 648.179 352.483 644.971C354.35 643.892 355.611 641.729 356.372 640.211C358.689 641.701 362.946 641.785 364.391 641.423C366.73 640.861 368.809 639.52 370.288 637.621C371.767 635.722 372.557 633.378 372.531 630.97ZM301.822 145.012L302.745 144.323L302.995 144.134L318.648 132.391V131.835C318.648 124.206 319.02 120.681 321.371 113.486C323.193 107.926 331.695 104.384 337.78 104.295C338.174 104.295 338.552 104.295 338.924 104.323C339.18 104.323 339.43 104.345 339.674 104.39C339.424 104.823 339.074 105.368 338.663 105.98C338.252 106.591 337.719 107.375 337.168 108.154C334.629 111.751 331.284 116.155 330.695 116.867L328.111 119.997L331.951 118.668C332.979 118.312 333.74 117.367 334.351 116.611C334.562 116.349 334.762 116.099 334.907 115.932C335.307 115.538 335.718 115.076 336.135 114.587C336.552 114.098 337.085 113.436 337.574 112.791C338.063 112.146 338.552 111.468 339.052 110.745C341.769 106.853 344.659 101.882 347.315 97.3281C350.271 92.2739 353.944 85.9798 355.094 85.4461C356.5 84.9623 358.345 84.562 359.162 85.4461C360.151 86.4914 359.979 89.3771 358.789 93.1302C357.789 94.2923 356.45 96.9056 354.411 100.914C351.983 105.718 348.66 112.296 346.804 113.336L347.915 115.326C350.199 114.048 352.888 108.971 356.439 101.943C357.172 100.492 357.917 99.0184 358.589 97.7618L359.223 98.0621L359.74 97.1113C364.579 88.1872 367.519 86.4803 369.119 86.6248C369.381 86.6125 369.642 86.6711 369.874 86.7943C370.106 86.9176 370.3 87.1011 370.436 87.3254C371.97 90.1055 367.374 99.2297 365.435 103.133C364.691 104.617 364.141 105.707 363.918 106.347C361.223 111.712 355.789 122.049 354.677 123.027C354.775 122.959 354.884 122.91 355 122.883L355.517 125.107C356.072 124.979 356.589 124.851 359.74 119.191L358.867 121.871L365.985 107.309C368.169 102.86 369.364 102.221 369.603 102.138C370.197 102.694 370.897 106.43 369.342 114.581C367.536 124.034 363.785 132.902 353.227 143.372C352.91 143.689 352.588 144.006 352.255 144.323L351.255 145.273C348.021 148.272 344.638 151.106 341.119 153.764L316.614 169.204L316.559 169.238L314.247 165.485L303.545 148.204L301.661 145.151L301.822 145.012ZM356.967 78.2901C356.611 78.9963 355.778 80.0861 355.039 80.2362C351.905 80.8756 353.327 77.2782 353.711 76.1662C355.1 72.1684 358.895 74.4258 356.967 78.3068V78.2901ZM357.134 637.832L356.745 636.764L355.678 637.148C355.189 637.32 355.039 637.67 354.778 638.26C354.316 639.288 353.111 642.024 351.366 643.019C346.215 645.994 345.981 646.133 341.036 644.181C340.976 643.955 340.849 643.753 340.671 643.601C340.494 643.449 340.274 643.354 340.041 643.331C339.767 643.306 339.493 643.378 339.267 643.535C339.041 643.691 338.876 643.922 338.802 644.187C338.259 645.449 337.636 646.675 336.935 647.857C335.89 649.703 333.334 651.07 330.567 651.259C328.017 651.432 325.822 650.559 324.538 648.863C324.421 648.706 324.268 648.581 324.092 648.496C323.916 648.412 323.722 648.372 323.527 648.379C322.799 648.379 322.415 648.935 321.86 649.797C320.587 651.676 317.942 655.585 312.263 656.625C306.585 657.665 306.373 657.537 305.657 656.753C304.726 655.709 303.615 654.841 302.378 654.19L301.861 653.906L301.306 654.162C301.016 654.309 300.794 654.562 300.683 654.868C298.75 658.882 296.277 661.468 293.899 661.952C292.287 662.285 290.565 661.679 288.842 660.156C287.681 659.144 287.092 658.638 286.258 658.799C285.425 658.96 285.147 659.572 284.863 660.183C283.985 661.935 282.726 663.468 281.179 664.67C279.801 665.827 276.145 667.806 274.367 667.295C274.164 667.245 273.979 667.139 273.833 666.988C273.688 666.838 273.588 666.649 273.545 666.444C273.122 665.143 272.522 663.781 271.294 663.497C270.066 663.214 268.977 664.27 267.81 665.499C266.093 667.312 263.954 669.552 260.481 668.835C259.297 667.684 258.219 659.583 258.542 656.102C258.564 655.679 258.648 655.261 258.792 654.862H258.864L260.131 654.501L368.075 623.642L368.358 624.615L368.708 625.816L369.047 626.995L370.253 631.148C370.235 633.014 369.596 634.821 368.435 636.282C367.274 637.742 365.659 638.773 363.846 639.211C361.935 639.711 357.534 638.955 357.134 637.848V637.832ZM282.118 594.34C282.035 581.824 282.024 566.656 282.118 554.374L293.876 591.132L282.118 594.34ZM279.846 594.957L275.489 596.147C269.455 594.09 261.181 594.618 254.218 595.068C251.851 595.218 249.601 595.363 247.628 595.396C245.745 588.491 245.833 574.79 246.011 560.112C249.534 560.345 253.163 560.668 256.763 560.962C263.754 561.563 270.983 562.18 276.979 562.18V559.9C271.077 559.9 264.198 559.311 256.975 558.694C253.324 558.382 249.634 558.065 246.056 557.832C246.234 542.92 246.389 527.601 244.528 517.854C248.973 518.01 253.418 518.127 258.164 518.127C262.053 518.127 266.115 518.049 270.477 517.865L279.957 547.501C279.74 560.812 279.74 579.906 279.84 594.974L279.846 594.957ZM148.914 451.194C148.236 444.104 147.708 438.494 147.569 436.409C151.298 436.626 155.482 436.848 159.955 437.071L177.325 471.711C167.323 471.221 158.371 470.743 150.692 470.287C150.125 464.065 149.525 457.638 148.914 451.194ZM146.53 369.081C146.586 364.589 146.636 360.005 146.68 355.331C157.327 355.431 168.846 356.27 180.148 357.093L189.222 357.744C189.394 367.269 189.65 377.56 189.972 387.419C190.033 389.259 190.1 391.205 190.172 393.234C173.68 392.35 156.477 393.446 146.341 398.239C146.297 388.475 146.408 378.9 146.53 369.081ZM146.747 341.964C146.747 339.384 146.914 336.877 147.08 334.452C147.325 330.838 147.525 327.841 147.08 325.656C148.875 325.806 150.677 325.84 152.476 325.756C165.256 324.961 177.281 324.945 189.211 325.239C189.028 327.23 188.905 332.039 189.011 344.277C189.044 347.797 189.094 351.55 189.155 355.453L180.265 354.819C168.924 353.991 157.371 353.151 146.652 353.046C146.715 349.42 146.747 345.727 146.747 341.964ZM190.378 325.523L190.417 325.267H191.245C191.126 325.368 190.988 325.443 190.838 325.487C190.689 325.531 190.532 325.543 190.378 325.523ZM192.434 436.12C181.787 435.736 170.963 435.286 161.405 434.83L147.314 406.796C147.041 406.24 146.758 405.656 146.402 405.033C146.402 403.621 146.369 402.214 146.358 400.813C155.86 395.809 173.447 394.697 190.256 395.598C190.728 408.225 191.434 423.521 192.412 436.12H192.434ZM146.48 410.199L158.766 434.702C154.671 434.502 150.853 434.296 147.425 434.102C146.936 425.784 146.641 417.877 146.48 410.199ZM162.594 437.193C171.924 437.638 182.36 438.072 192.601 438.439C193.434 448.486 194.462 456.492 195.701 459.5C196.474 461.369 196.812 466.779 197.046 472.628L191.489 472.378C187.496 472.2 183.638 472.015 179.915 471.822L162.594 437.193ZM237.498 448.063C237.765 455.847 238.087 465.033 238.499 474.235C228.158 473.901 214.472 473.384 199.33 472.728C199.102 466.49 198.718 460.835 197.807 458.628C196.779 456.131 195.79 449.175 194.895 438.516C210.932 439.072 226.313 439.451 236.12 439.451H237.193C237.287 442.058 237.393 444.994 237.498 448.063ZM197.124 474.947C197.179 476.815 197.224 478.689 197.268 480.468C197.507 490.076 197.657 492.8 198.268 493.701L200.158 492.417L200.202 492.5C199.824 491.588 199.68 485.65 199.546 480.412C199.502 478.65 199.457 476.837 199.407 475.047C213.983 475.686 227.919 476.214 238.604 476.548C239.31 491.799 240.271 506.823 241.744 515.469L235.909 515.224C228.463 514.902 220.756 514.568 212.049 514.568V516.848C220.712 516.848 228.385 517.182 235.809 517.499L242.172 517.765C244.094 527.218 243.939 542.658 243.761 557.693C235.809 557.243 228.541 557.287 223.523 558.749L181.126 474.185C186.438 474.463 191.811 474.713 197.124 474.947ZM244.072 515.575C242.594 507.157 241.605 492.033 240.888 476.62C247.378 476.809 252.468 476.92 255.491 476.92C256.247 476.92 256.869 476.92 257.352 476.92L269.738 515.647C260.192 516.014 252.057 515.869 244.072 515.575ZM240.782 474.307C240.366 465.061 240.049 455.825 239.777 447.985C239.66 444.649 239.56 441.802 239.471 439.434C242.049 439.406 244.044 439.334 245.306 439.223L256.636 474.657C254.191 474.674 248.59 474.552 240.782 474.307ZM244.594 436.999C243.394 437.087 241.627 437.138 239.382 437.16C239.16 431.527 239.01 429.125 238.826 428.491L236.654 429.175C236.793 429.731 236.954 432.801 237.126 437.171C227.474 437.171 211.454 436.782 194.729 436.198C193.906 425.745 193.173 412.067 192.567 395.709C204.792 396.509 216.339 398.344 223.84 400.474L224.462 398.283C216.644 396.059 204.864 394.174 192.478 393.368C192.423 391.805 192.367 390.226 192.317 388.62C191.945 377.549 191.689 367.057 191.528 357.894C200.096 358.45 208.598 358.906 216.661 358.906C217.661 358.906 218.645 358.906 219.628 358.906L244.594 436.999ZM221.256 356.576L219.484 351.016L217.317 351.75L218.884 356.643C210.171 356.738 200.863 356.265 191.467 355.637C191.2 339.562 191.239 328.003 191.467 325.328C198.691 325.528 205.914 325.84 213.249 326.157C220.584 326.474 228.041 326.79 235.698 327.002C235.637 336.243 235.698 345.979 235.731 355.525C230.932 356.15 226.101 356.501 221.262 356.576H221.256ZM251.023 351.572C246.848 353.277 242.485 354.479 238.026 355.153C237.976 345.734 237.932 336.143 237.993 327.041C242.85 327.157 247.784 327.235 252.813 327.235V324.956C247.812 324.956 242.866 324.878 238.01 324.755C238.01 321.836 238.071 318.973 238.121 316.182L262.131 316.471L251.023 351.572ZM68.0644 277.244C58.6736 277.038 51.6778 273.663 48.3715 267.742C44.3152 260.513 45.9933 250.105 53.2225 237.717C55.2618 234.225 67.2809 215.626 79.5111 196.705L80.4224 195.298L81.806 193.163C84.2176 189.427 86.607 185.74 88.8741 182.226C89.4798 182.226 90.1022 182.254 90.7634 182.254C95.5644 182.254 101.843 181.876 108.428 181.476C115.224 181.07 122.253 180.647 127.81 180.647H130.921C139.134 180.647 154.104 180.608 163.706 181.203L164.895 181.281L165.706 181.342C161.478 192.668 156.816 205.028 152.192 217.022C151.081 219.93 149.97 222.815 148.858 225.657C142.746 241.514 136.962 256.093 132.844 265.979L132.455 266.068L131.733 266.246L131.205 266.368L130.966 266.846V266.896C126.821 275.237 126.232 277.655 126.365 278.573L68.0644 277.244ZM95.7477 171.601C100.804 163.75 104.433 158.078 105.061 156.955C119.458 131.295 136.289 125.818 147.847 125.746H148.147C164.017 125.746 176.431 135.343 179.264 140.269C179.959 141.47 179.948 142.121 179.82 142.321L179.72 142.532C179.713 142.561 179.704 142.589 179.692 142.616C178.892 144.995 177.853 147.981 176.62 151.451C173.991 158.812 170.468 168.454 166.484 179.09L165.717 179.029L164.528 178.94C154.993 178.301 139.923 178.329 130.883 178.345H127.81C122.186 178.345 115.124 178.768 108.295 179.179C101.466 179.591 95.1087 179.98 90.3577 179.941L94.8031 173.013L95.7366 171.567L95.7477 171.601ZM163.945 262.598C156.571 267.553 144.98 273.852 130.605 276.749L129.755 276.916L129.199 277.021L128.86 277.094C130.008 274.102 131.307 271.17 132.75 268.309H132.833L133.1 268.248L134.483 267.903C151.542 263.516 165.795 254.603 174.964 242.582C175.943 245.246 177.056 247.859 178.298 250.411C177.042 252.056 171.963 257.227 163.945 262.598ZM271.305 25.1795C275.295 25.8578 277.745 28.321 278.584 32.4966C279.857 38.8519 275.023 45.285 267.932 51.1732L267.004 51.9238C266.71 52.1629 266.404 52.402 266.099 52.6355C256.163 60.3252 242.761 66.8696 235.092 70.6227L232.753 71.7736L231.514 72.3852L231.375 72.4575C231.044 72.1742 230.748 71.8532 230.491 71.5012C226.946 66.6527 228.597 53.9255 231.486 49.027C238.782 36.6723 257.38 24.9904 268.905 24.9904C269.709 24.9865 270.512 25.0497 271.305 25.1795ZM230.286 108.582C230.842 102.077 231.275 93.436 231.508 84.8845C231.595 81.4287 231.868 77.9802 232.325 74.5537C233.381 73.9977 234.648 73.4028 236.093 72.6966C244.5 68.5877 257.803 62.0878 267.766 54.298C269.451 56.1034 270.966 58.0595 272.294 60.1418C276.74 67.0308 282.085 79.3188 282.452 98.7626C282.641 108.604 267.788 113.875 262.904 115.604C261.064 116.26 260.57 116.433 260.57 117.317C260.57 120.141 258.642 127.82 256.78 135.237C256.369 136.905 255.958 138.507 255.574 140.064C255.163 140.442 254.785 140.792 254.463 141.092C253.991 141.531 253.502 141.987 253.352 142.082C252.835 142.438 250.623 142.126 248.756 141.804C248.696 141.558 248.624 141.314 248.54 141.075C248.389 140.686 248.184 140.147 242.622 137.106L241.671 136.588L241.644 136.633C239.866 128.537 235.359 121.804 229.219 117.778C229.58 115.693 229.936 112.758 230.286 108.56V108.582ZM235.981 166.747C237.776 160.631 239.704 154.086 240.982 148.665C241.077 148.287 241.16 147.914 241.244 147.553C241.327 147.192 241.421 146.764 241.505 146.38C241.755 145.212 241.966 144.117 242.127 143.122C242.194 142.727 242.249 142.349 242.294 141.982C242.338 141.615 242.388 141.209 242.422 140.87C242.455 140.531 242.483 140.036 242.488 139.663C243.044 139.986 243.633 140.314 244.155 140.631L245.05 141.187C245.54 141.475 246.015 141.789 246.472 142.126C246.521 142.282 246.565 142.449 246.606 142.627C246.694 143.021 246.757 143.42 246.795 143.822C246.913 145.428 246.887 147.042 246.717 148.643C246.678 149.027 246.639 149.416 246.595 149.816C246.55 150.216 246.506 150.567 246.456 150.928C245.628 157.172 243.677 164.751 241.899 169.088C241.232 170.694 240.788 172.023 240.343 173.197C238.971 177.033 238.365 178.757 234.025 181.537C233.32 181.998 232.52 182.488 231.597 183.021C232.136 179.819 234.237 172.679 235.981 166.725V166.747ZM76.7161 193.285C76.3883 193.252 75.9326 193.202 75.5548 193.141C77.3329 189.983 83.0841 179.852 86.7515 174.703C87.5961 173.513 88.4185 172.429 88.8408 172.207C89.0519 172.107 89.4353 172.207 90.4022 172.535C90.8523 172.679 91.4024 172.857 92.0692 173.046L78.7832 193.619C78.1048 193.45 77.4133 193.338 76.7161 193.285ZM126.582 314.819L235.848 316.165C235.793 318.945 235.759 321.797 235.737 324.705C228.108 324.489 220.667 324.149 213.371 323.86C193.045 322.987 173.847 322.159 152.365 323.488C150.302 323.578 148.235 323.519 146.18 323.31C145.954 322.998 145.678 322.726 145.363 322.504C144.13 321.642 142.424 321.697 140.173 322.648L139.312 322.543C135.644 322.006 131.948 321.681 128.243 321.569V323.849C131.855 323.961 135.458 324.28 139.034 324.806C140.929 325.039 142.852 325.273 144.719 325.462C145.274 327.291 145.041 330.844 144.808 334.308C144.646 336.66 144.469 339.312 144.469 341.975C144.469 345.734 144.452 349.426 144.419 353.051C138.198 352.994 131.981 353.378 125.815 354.202C123.531 342.114 123.142 328.781 126.582 314.836V314.819ZM126.265 356.415C132.277 355.623 138.338 355.252 144.402 355.303C144.365 359.974 144.315 364.551 144.252 369.037C144.124 379.267 144.007 389.237 144.069 399.44C143.896 399.545 143.724 399.651 143.557 399.762C138.212 389.998 130.132 374.758 126.265 356.432V356.415ZM143.352 404.132L144.124 405.567C144.252 414.652 144.552 424.004 145.141 433.924C139.968 433.607 135.867 433.312 133.355 433.051L143.352 404.132ZM132.594 435.269C135.167 435.558 139.601 435.886 145.274 436.237V436.431C145.402 438.483 145.913 443.893 146.625 451.371C147.119 456.587 147.736 463.115 148.375 470.109C134.522 469.259 125.126 468.497 121.314 467.885L132.594 435.269ZM120.575 470.065C124.592 470.754 135.083 471.577 148.603 472.406C149.903 486.862 151.22 502.847 151.648 513.273C140.257 511.705 124.687 510.131 114.313 509.97C113.524 504.176 112.451 499.823 111.029 497.699L120.575 470.065ZM110.017 500.646C110.851 502.731 111.529 505.945 112.068 509.97C110.275 509.961 108.482 510.054 106.7 510.248L110.017 500.646ZM105.855 512.689C108.002 512.336 110.177 512.185 112.351 512.239C113.557 522.803 113.946 537.943 113.824 552.828C104.972 552.138 95.6199 551.365 92.7082 550.793L105.855 512.689ZM91.9636 552.917C94.253 553.473 99.743 553.99 113.801 555.085C113.662 566.623 113.218 577.849 112.607 586.506L84.8233 573.617L91.9636 552.917ZM149.753 672.26C148.331 671.876 146.547 670.948 146.091 668.735L145.858 667.59L144.719 667.856C144.23 667.968 144.019 668.296 143.73 668.746C139.69 675.057 133.422 676.113 125.104 671.888C124.192 671.421 124.192 670.692 124.409 669.107C124.565 667.995 124.737 666.756 123.748 665.983C123.307 665.666 122.773 665.507 122.231 665.532C121.119 665.532 119.452 666.016 116.985 667.034C115.768 667.539 110.834 667.489 108.65 665.171C107.339 663.786 107.317 661.746 108.578 659.105C108.735 658.835 108.81 658.524 108.794 658.212C108.777 657.9 108.669 657.599 108.484 657.348C107.733 656.369 106.261 656.653 103.544 657.164C100.21 657.793 95.1476 658.749 93.1417 656.569C91.9247 655.257 91.808 652.772 92.7916 649.191C92.8459 648.994 92.852 648.788 92.8095 648.588C92.7669 648.389 92.6769 648.203 92.5471 648.046C91.9914 647.389 91.1857 647.49 89.0353 647.667C85.9569 647.957 80.2279 648.496 78.1942 645.905C77.1829 644.621 77.0829 642.569 77.9775 639.789L78.4165 639.694L78.2831 638.643C78.1442 637.581 77.2218 637.631 76.2494 637.687C64.1136 638.371 63.4246 636.625 63.4023 636.575C62.2632 632.939 62.9578 631.988 62.9467 631.988L63.7746 631.432L62.9022 629.658L61.9576 629.958C61.9576 629.958 60.7129 630.325 56.0898 629.402C54.5339 629.085 53.5504 627.957 53.167 626.066C52.4779 622.63 54.0671 617.859 56.4343 616.253C56.7305 616.047 57.062 615.898 57.4122 615.813C57.7886 615.727 58.1807 615.739 58.5514 615.847C58.8612 615.936 59.1554 616.073 59.4238 616.253C59.7794 616.48 60.1517 616.708 60.5351 616.936C63.1134 618.477 66.2696 619.972 69.5869 621.54C74.6879 623.953 80.4724 626.689 85.7013 630.303C88.9853 632.577 92.6082 635.352 96.4423 638.287C101.799 642.391 107.683 646.895 113.751 650.837C120.325 655.101 127.121 658.699 133.716 660.411C136.254 661.097 138.868 661.457 141.496 661.484C142.196 661.484 143.574 661.573 145.174 661.674C149.786 661.974 153.509 662.135 156.365 662.068C158.894 662.007 160.766 661.763 162.011 661.268C162.833 664.337 162.278 667.045 160.377 669.163C157.838 671.893 153.282 673.255 149.725 672.288L149.753 672.26ZM128.143 593.734L114.807 587.557C115.457 578.816 115.952 567.251 116.102 555.308L117.813 555.441C128.743 556.281 139.995 557.148 144.535 557.91L128.143 593.734ZM145.535 555.758C141.218 554.941 129.921 554.09 118.008 553.156L116.146 553.011C116.28 538.271 115.885 523.192 114.613 512.283C124.798 512.478 140.396 514.012 151.742 515.619C151.881 520.234 151.792 523.403 151.376 524.349L153.454 525.288C153.959 524.176 154.115 520.84 154.009 515.936C157.777 516.492 160.939 517.048 163.072 517.521L145.535 555.758ZM164.028 515.38C161.867 514.88 158.294 514.268 153.932 513.634C153.582 503.843 152.392 489.003 150.914 472.584C159.327 473.09 168.79 473.595 178.525 474.079L180.837 478.689L164.028 515.38ZM224.596 560.84C229.313 559.572 236.204 559.556 243.766 559.989C243.577 575.491 243.483 589.942 245.728 596.914L246.839 596.564V597.676C249.062 597.676 251.674 597.509 254.43 597.331C259.758 596.992 265.899 596.597 270.988 597.376L246.322 604.092L224.596 560.84Z" fill="black"/>
<path d="M413.823 225.184C414.834 216.338 412.262 209.16 406.772 205.49C404.568 204.044 402.007 203.236 399.372 203.156C396.738 203.077 394.133 203.729 391.846 205.04C386.945 207.77 383.395 208.687 381.289 207.77C379.099 206.813 378.371 203.877 377.599 200.719C376.765 197.339 375.904 193.841 372.92 192.59C370.32 191.506 366.73 192.412 361.612 195.448C359.812 196.521 358.467 196.899 357.617 196.56C356.472 196.121 355.867 194.203 355.222 192.168C354.044 188.431 352.444 183.316 345.693 184.756C343.131 185.312 341.375 185.24 340.469 184.573C339.564 183.905 339.358 182.271 339.18 180.441C338.952 177.917 338.669 174.781 335.635 173.213L334.59 175.237C336.38 176.166 336.663 177.9 336.913 180.647C337.108 182.827 337.313 185.095 339.136 186.407C340.63 187.519 342.87 187.692 346.187 186.963C350.666 186.007 351.744 188.57 353.066 192.835C353.844 195.293 354.644 197.839 356.823 198.668C358.395 199.268 360.295 198.857 362.796 197.372C367.114 194.803 370.236 193.891 372.053 194.659C373.982 195.465 374.671 198.262 375.387 201.225C376.221 204.595 377.16 208.415 380.388 209.821C383.256 211.072 387.251 210.172 392.958 206.997C394.878 205.89 397.068 205.337 399.283 205.399C401.499 205.461 403.654 206.135 405.51 207.347C410.267 210.527 412.473 216.922 411.561 224.889L413.823 225.184Z" fill="black"/>
<path d="M423.03 224.061L425.309 224.011C425.125 215.949 421.975 204.294 413.684 197.973C408.827 194.27 402.893 193.157 396.525 194.764L396.375 194.814C387.923 198.251 386.373 195.37 384.023 191.017C381.611 186.541 378.605 180.975 367.119 182.426L367.403 184.689C377.349 183.433 379.716 187.842 382.017 192.101C384.406 196.549 386.873 201.109 397.158 196.955C402.876 195.537 407.977 196.488 412.306 199.791C419.463 205.24 422.847 215.91 423.03 224.061Z" fill="black"/>
</svg>
