<svg width="185" height="185" viewBox="0 0 185 185" fill="none" xmlns="http://www.w3.org/2000/svg">
<circle cx="92.5" cy="92.5" r="92.5" fill="white"/>
<g clip-path="url(#clip0_38_39)">
<path d="M144.892 139.544L130.749 125.401C133.1 116.397 140.44 82.7576 123.958 66.2749C105.934 48.2513 45.87 39.4067 43.3218 39.0389C42.1398 38.8703 40.9502 39.2648 40.1072 40.1078C39.2641 40.9508 38.8682 42.1419 39.0382 43.3221C39.4061 45.8703 48.2503 105.934 66.2739 123.958C73.2102 130.895 83.8936 134.411 98.027 134.411C109.865 134.411 120.838 131.93 125.398 130.747L139.543 144.893C140.282 145.631 141.25 146 142.218 146C143.186 146 144.153 145.631 144.892 144.893C146.369 143.415 146.369 141.021 144.892 139.544ZM98.0273 126.847C85.9731 126.847 77.0888 124.076 71.6228 118.609C65.023 112.01 58.5994 96.8167 53.0462 74.6735C50.2588 63.5592 48.3469 53.2392 47.3453 47.3456C53.239 48.3471 63.5585 50.2591 74.6732 53.0469C96.8168 58.6001 112.01 65.0237 118.61 71.6234C130.277 83.2904 126.898 107.575 124.446 119.098L101.515 96.1672V82.0338C101.515 79.9453 99.8218 78.252 97.7333 78.252C95.6449 78.252 93.9516 79.9453 93.9516 82.0338V88.6033L76.8568 71.5089C75.3793 70.0325 72.9853 70.0325 71.5082 71.5089C70.0311 72.986 70.0311 75.3803 71.5082 76.8574L75.5188 80.868H68.9485C66.86 80.868 65.1668 82.5612 65.1668 84.6497C65.1668 86.7382 66.86 88.4314 68.9485 88.4314H83.0826L101.687 107.035H95.116C93.0275 107.035 91.3342 108.729 91.3342 110.817C91.3342 112.906 93.0271 114.599 95.116 114.599L109.25 114.599L119.103 124.452C113.915 125.558 106.129 126.847 98.0273 126.847Z" fill="#49863F"/>
</g>
<defs>
<clipPath id="clip0_38_39">
<rect width="107" height="107" fill="white" transform="translate(39 39)"/>
</clipPath>
</defs>
</svg>
