<svg width="185" height="185" viewBox="0 0 185 185" fill="none" xmlns="http://www.w3.org/2000/svg">
<circle cx="92.5" cy="92.5" r="92.5" fill="white"/>
<g clip-path="url(#clip0_38_39)">
<path d="M144.892 139.544L130.749 125.401C133.1 116.397 140.44 82.7576 123.958 66.2749C105.934 48.2514 45.8701 39.4068 43.3219 39.0389C42.1399 38.8703 40.9503 39.2648 40.1072 40.1078C39.2642 40.9509 38.8683 42.1419 39.0383 43.3222C39.4061 45.8704 48.2504 105.934 66.274 123.958C73.2102 130.895 83.8936 134.411 98.027 134.411C109.865 134.411 120.838 131.93 125.398 130.747L139.543 144.893C140.282 145.631 141.25 146 142.218 146C143.186 146 144.153 145.631 144.892 144.893C146.369 143.415 146.369 141.021 144.892 139.544ZM98.0274 126.847C85.9731 126.847 77.0889 124.076 71.6229 118.609C65.0231 112.01 58.5995 96.8168 53.0463 74.6735C50.2589 63.5592 48.3469 53.2393 47.3454 47.3457C53.239 48.3472 63.5586 50.2592 74.6733 53.0469C96.8169 58.6001 112.01 65.0237 118.61 71.6235C130.277 83.2905 126.898 107.575 124.446 119.098L101.515 96.1672V82.0338C101.515 79.9454 99.8219 78.2521 97.7334 78.2521C95.6449 78.2521 93.9516 79.9454 93.9516 82.0338V88.6034L76.8569 71.5089C75.3794 70.0326 72.9854 70.0326 71.5083 71.5089C70.0312 72.986 70.0312 75.3804 71.5083 76.8575L75.5188 80.868H68.9486C66.8601 80.868 65.1668 82.5613 65.1668 84.6498C65.1668 86.7382 66.8601 88.4315 68.9486 88.4315H83.0827L101.687 107.035H95.116C93.0276 107.035 91.3343 108.729 91.3343 110.817C91.3343 112.906 93.0272 114.599 95.116 114.599L109.25 114.599L119.103 124.452C113.915 125.558 106.129 126.847 98.0274 126.847Z" fill="#49863F"/>
</g>
<defs>
<clipPath id="clip0_38_39">
<rect width="107" height="107" fill="white" transform="translate(39 39)"/>
</clipPath>
</defs>
</svg>
